<svg width="281" height="208" viewBox="0 0 281 208" fill="none" xmlns="http://www.w3.org/2000/svg">
<path d="M280.075 182.787H0.925171V182.927H280.075V182.787Z" fill="#EBEBEB"/>
<path d="M252.104 191.77H233.613V191.91H252.104V191.77Z" fill="#EBEBEB"/>
<path d="M185.845 193.289H180.993V193.429H185.845V193.289Z" fill="#EBEBEB"/>
<path d="M233.055 186.589H206.44V186.729H233.055V186.589Z" fill="#EBEBEB"/>
<path d="M43.434 187.527H30.2134V187.667H43.434V187.527Z" fill="#EBEBEB"/>
<path d="M62.8352 187.527H48.4032V187.667H62.8352V187.527Z" fill="#EBEBEB"/>
<path d="M110.414 189.883H74.325V190.023H110.414V189.883Z" fill="#EBEBEB"/>
<path d="M133.242 157.887H25.4401C24.5955 157.886 23.7861 157.549 23.1895 156.951C22.5929 156.354 22.2578 155.544 22.2578 154.699V3.15997C22.2651 2.32031 22.6034 1.51745 23.1993 0.925782C23.7951 0.334119 24.6004 0.0014384 25.4401 0H133.242C134.088 0 134.898 0.335866 135.496 0.933711C136.094 1.53156 136.43 2.34241 136.43 3.18789V154.699C136.43 155.545 136.094 156.355 135.496 156.953C134.898 157.551 134.088 157.887 133.242 157.887ZM25.4401 0.11166C24.6326 0.113139 23.8586 0.434951 23.2882 1.00646C22.7177 1.57797 22.3973 2.35248 22.3973 3.15997V154.699C22.3973 155.507 22.7177 156.281 23.2882 156.853C23.8586 157.424 24.6326 157.746 25.4401 157.747H133.242C134.05 157.746 134.825 157.424 135.396 156.853C135.967 156.282 136.289 155.507 136.29 154.699V3.15997C136.289 2.35196 135.967 1.57747 135.396 1.00612C134.825 0.43477 134.05 0.113136 133.242 0.11166H25.4401Z" fill="#EBEBEB"/>
<path d="M254.008 157.887H146.2C145.355 157.886 144.545 157.549 143.948 156.952C143.35 156.354 143.014 155.544 143.012 154.699V3.15997C143.021 2.3198 143.361 1.51694 143.957 0.925433C144.554 0.333924 145.36 0.00142271 146.2 0H254.008C254.846 0.00290567 255.65 0.336235 256.245 0.927741C256.84 1.51925 257.177 2.32127 257.184 3.15997V154.699C257.184 155.543 256.85 156.352 256.255 156.949C255.659 157.547 254.851 157.884 254.008 157.887ZM146.2 0.11166C145.392 0.113136 144.618 0.43477 144.046 1.00612C143.475 1.57747 143.153 2.35196 143.152 3.15997V154.699C143.153 155.507 143.475 156.282 144.046 156.853C144.618 157.424 145.392 157.746 146.2 157.747H254.008C254.816 157.746 255.59 157.424 256.162 156.853C256.733 156.282 257.055 155.507 257.056 154.699V3.15997C257.055 2.35196 256.733 1.57747 256.162 1.00612C255.59 0.43477 254.816 0.113136 254.008 0.11166H146.2Z" fill="#EBEBEB"/>
<path d="M247.364 14.5159H159.17V182.787H247.364V14.5159Z" fill="#EBEBEB"/>
<path d="M240.804 20.0038H165.729V182.787H240.804V20.0038Z" fill="#F5F5F5"/>
<path d="M213.827 33.5035H192.718V39.3378H213.827V33.5035Z" fill="white"/>
<path d="M223.335 91.4605H234.785C235.259 91.4605 235.714 91.6487 236.049 91.9838C236.384 92.3188 236.572 92.7732 236.572 93.2471C236.572 93.7209 236.384 94.1753 236.049 94.5104C235.714 94.8454 235.259 95.0336 234.785 95.0336H223.335C222.861 95.0336 222.406 94.8454 222.071 94.5104C221.736 94.1753 221.548 93.7209 221.548 93.2471C221.548 92.7732 221.736 92.3188 222.071 91.9838C222.406 91.6487 222.861 91.4605 223.335 91.4605Z" fill="white"/>
<path d="M98.8731 32.4204H40.2182V79.6916H98.8731V32.4204Z" fill="#EBEBEB"/>
<path d="M95.7191 76.5429V35.5693H43.3617V76.5429H95.7191Z" fill="#FAFAFA"/>
<path d="M89.6166 56.5949V54.6353H49.4693V56.5949H89.6166Z" fill="#E0E0E0"/>
<path d="M89.6166 61.0555V59.0958H49.4693V61.0555H89.6166Z" fill="#E0E0E0"/>
<path d="M89.6166 65.5109V63.5513H49.4693V65.5109H89.6166Z" fill="#E0E0E0"/>
<path d="M79.5505 69.9717V68.012H59.5355V69.9717H79.5505Z" fill="#E0E0E0"/>
<path d="M49.4973 35.5692C49.4973 36.3739 49.3382 37.1706 49.0291 37.9135C48.72 38.6564 48.267 39.3309 47.6962 39.898C47.1254 40.4652 46.4481 40.9138 45.7032 41.2182C44.9584 41.5226 44.1607 41.6766 43.356 41.6714C42.2458 41.6742 41.1563 41.3709 40.2072 40.7949V32.4204H48.5817C49.1685 33.3668 49.4851 34.4557 49.4973 35.5692Z" fill="#EBEBEB"/>
<path d="M98.8732 32.4204V40.7949C97.706 41.497 96.3375 41.7884 94.9856 41.6227C93.6337 41.457 92.376 40.8438 91.4129 39.8807C90.4498 38.9176 89.8366 37.6599 89.6709 36.308C89.5053 34.9561 89.7967 33.5876 90.4987 32.4204H98.8732Z" fill="#EBEBEB"/>
<path d="M49.4972 76.5484C49.4992 77.656 49.198 78.743 48.6263 79.6917H40.2518V71.3172C41.178 70.7626 42.2348 70.4634 43.3143 70.4501C44.3938 70.4368 45.4576 70.7099 46.3972 71.2416C47.3369 71.7733 48.1188 72.5445 48.6633 73.4767C49.2079 74.4089 49.4956 75.4688 49.4972 76.5484Z" fill="#EBEBEB"/>
<path d="M98.8733 71.3116V79.6861H90.4988C89.9228 78.739 89.6194 77.6513 89.6223 76.5428C89.6235 75.4618 89.9113 74.4003 90.4564 73.4668C91.0016 72.5332 91.7845 71.7609 92.7254 71.2285C93.6664 70.6962 94.7316 70.4229 95.8126 70.4365C96.8936 70.4501 97.9517 70.7501 98.8789 71.306L98.8733 71.3116Z" fill="#EBEBEB"/>
<path d="M74.6756 46.3854C75.1355 43.5519 73.2114 40.8819 70.3778 40.422C67.5442 39.962 64.8743 41.8862 64.4144 44.7198C63.9544 47.5533 65.8786 50.2233 68.7122 50.6832C71.5457 51.1432 74.2156 49.219 74.6756 46.3854Z" fill="#E0E0E0"/>
<path d="M146.273 115.652H30.2134V119.828H146.273V115.652Z" fill="#EBEBEB"/>
<path d="M145.268 119.828H107.56V182.787H145.268V119.828Z" fill="#F5F5F5"/>
<path d="M69.356 119.828H31.6485V182.787H69.356V119.828Z" fill="#F5F5F5"/>
<path d="M32.9381 119.828H31.6485V182.787H32.9381V119.828Z" fill="#EBEBEB"/>
<path d="M108.85 119.828H107.56V182.787H108.85V119.828Z" fill="#EBEBEB"/>
<path d="M51.4513 105.586H44.5172L45.0755 115.652H50.893L51.4513 105.586Z" fill="#F0F0F0"/>
<path d="M111.652 111.286H75.4244V115.652H111.652V111.286Z" fill="#F0F0F0"/>
<path d="M111.658 111.799H94.9539V115.144H111.658V111.799Z" fill="#FAFAFA"/>
<path d="M140.5 208C200.284 208 248.749 205.17 248.749 201.68C248.749 198.19 200.284 195.36 140.5 195.36C80.7158 195.36 32.2512 198.19 32.2512 201.68C32.2512 205.17 80.7158 208 140.5 208Z" fill="#F5F5F5"/>
<path d="M191.145 162.589C200.913 162.589 208.832 154.671 208.832 144.902C208.832 135.134 200.913 127.215 191.145 127.215C181.376 127.215 173.458 135.134 173.458 144.902C173.458 154.671 181.376 162.589 191.145 162.589Z" fill="white"/>
<path d="M191.143 162.806C187.602 162.807 184.14 161.758 181.195 159.791C178.249 157.824 175.954 155.028 174.598 151.757C173.242 148.485 172.886 144.885 173.576 141.411C174.267 137.938 175.971 134.747 178.475 132.242C180.979 129.738 184.169 128.032 187.643 127.341C191.116 126.649 194.716 127.004 197.988 128.359C201.26 129.714 204.057 132.009 206.025 134.953C207.992 137.898 209.042 141.36 209.042 144.901C209.038 149.647 207.151 154.198 203.795 157.555C200.44 160.911 195.89 162.8 191.143 162.806ZM191.143 127.437C187.688 127.437 184.31 128.462 181.437 130.382C178.564 132.302 176.325 135.03 175.003 138.223C173.681 141.415 173.336 144.928 174.01 148.317C174.685 151.705 176.349 154.818 178.793 157.261C181.236 159.704 184.35 161.367 187.739 162.041C191.128 162.714 194.64 162.367 197.832 161.044C201.024 159.721 203.752 157.481 205.671 154.608C207.59 151.734 208.614 148.356 208.613 144.901C208.608 140.27 206.766 135.829 203.491 132.555C200.215 129.281 195.775 127.44 191.143 127.437Z" fill="#393715"/>
<path d="M193.99 134.874H188.296V154.928H193.99V134.874Z" fill="#393715"/>
<path d="M201.17 147.754V142.059H181.116V147.754H201.17Z" fill="#393715"/>
<path d="M71.3319 11.2049L70.9523 10.7974C73.5367 8.35427 76.8161 6.77408 80.3373 6.27515L80.4154 6.83345C77.0077 7.31404 73.8336 8.84162 71.3319 11.2049Z" fill="#393715"/>
<path d="M67.2004 17.3071L66.6812 17.1061C67.2447 15.6838 67.9958 14.3432 68.9143 13.1198L69.361 13.4548C68.4752 14.6387 67.7488 15.9339 67.2004 17.3071Z" fill="#393715"/>
<path d="M82.777 38.6956C91.2379 38.6956 98.0968 31.8367 98.0968 23.3758C98.0968 14.915 91.2379 8.05609 82.777 8.05609C74.3162 8.05609 67.4573 14.915 67.4573 23.3758C67.4573 31.8367 74.3162 38.6956 82.777 38.6956Z" fill="#393715"/>
<path d="M91.9277 16.4752C91.3377 15.8627 90.6315 15.3739 89.8503 15.0375C89.0692 14.7011 88.2289 14.5239 87.3784 14.5161C86.528 14.5083 85.6845 14.6701 84.8973 14.9921C84.1102 15.3141 83.3951 15.7898 82.794 16.3914C82.1933 15.79 81.4787 15.3144 80.692 14.9925C79.9053 14.6705 79.0623 14.5087 78.2123 14.5165C77.3623 14.5243 76.5224 14.7016 75.7417 15.0379C74.9611 15.3742 74.2553 15.8628 73.6658 16.4752C72.5104 17.7249 71.888 19.3759 71.9307 21.0774C71.9735 22.7788 72.678 24.3965 73.8947 25.5866L81.1526 32.8445C81.3703 33.0623 81.6288 33.235 81.9133 33.3529C82.1978 33.4707 82.5028 33.5314 82.8107 33.5314C83.1187 33.5314 83.4236 33.4707 83.7081 33.3529C83.9926 33.235 84.2511 33.0623 84.4689 32.8445L91.7267 25.5866C92.9395 24.3928 93.639 22.7731 93.6765 21.0717C93.7141 19.3703 93.0867 17.7213 91.9277 16.4752Z" fill="white"/>
<path d="M82.7772 30.0697C82.6646 30.0659 82.5559 30.0281 82.4652 29.9613C82.3746 29.8946 82.3062 29.802 82.2691 29.6956L79.0366 20.2436L77.6855 24.1964C77.6471 24.3062 77.5753 24.4013 77.4802 24.4684C77.3851 24.5355 77.2714 24.5712 77.1551 24.5705H71.7452C71.5971 24.5705 71.4551 24.5116 71.3504 24.4069C71.2457 24.3022 71.1869 24.1602 71.1869 24.0122C71.1869 23.8641 71.2457 23.7221 71.3504 23.6174C71.4551 23.5127 71.5971 23.4539 71.7452 23.4539H76.7699L78.5229 18.3343C78.5609 18.2246 78.6321 18.1294 78.7267 18.0621C78.8212 17.9947 78.9344 17.9586 79.0505 17.9586C79.1666 17.9586 79.2798 17.9947 79.3744 18.0621C79.4689 18.1294 79.5401 18.2246 79.5781 18.3343L82.8665 27.9538L86.06 20.4335C86.1003 20.3376 86.1667 20.2549 86.2515 20.1948C86.3363 20.1346 86.4363 20.0993 86.5401 20.0929C86.6446 20.0869 86.7487 20.1104 86.8406 20.1608C86.9324 20.2111 87.0082 20.2863 87.0593 20.3776L88.7454 23.4483H93.8315C93.9796 23.4483 94.1216 23.5071 94.2263 23.6118C94.331 23.7165 94.3898 23.8585 94.3898 24.0066C94.3898 24.1546 94.331 24.2967 94.2263 24.4014C94.1216 24.5061 93.9796 24.5649 93.8315 24.5649H88.4216C88.3217 24.5657 88.2234 24.5397 88.137 24.4896C88.0506 24.4396 87.9792 24.3672 87.9303 24.2801L86.6071 21.913L83.2908 29.7291C83.248 29.8301 83.1766 29.9162 83.0852 29.9767C82.9939 30.0373 82.8867 30.0696 82.7772 30.0697Z" fill="#393715"/>
<path d="M167.778 182.117H109.509C108.559 182.128 107.618 181.941 106.745 181.568C105.872 181.195 105.085 180.644 104.436 179.951C103.787 179.258 103.29 178.438 102.975 177.542C102.66 176.646 102.535 175.694 102.608 174.748L112.027 35.1729C112.191 33.1796 113.091 31.3186 114.551 29.9515C116.011 28.5844 117.927 27.8088 119.927 27.7754H178.207C179.159 27.7645 180.103 27.9524 180.979 28.3269C181.854 28.7015 182.641 29.2546 183.291 29.9508C183.94 30.647 184.437 31.471 184.75 32.3702C185.063 33.2693 185.185 34.2239 185.108 35.1729L175.673 174.748C175.503 176.736 174.602 178.59 173.143 179.951C171.685 181.313 169.773 182.084 167.778 182.117Z" fill="#263238"/>
<path d="M180.698 84.6159H179.229C178.963 84.6191 178.7 84.5668 178.455 84.4623C178.211 84.3577 177.991 84.2033 177.81 84.0088C177.628 83.8143 177.49 83.5841 177.402 83.333C177.315 83.0818 177.281 82.8152 177.303 82.5502L179.106 55.8691C179.148 55.3111 179.398 54.7892 179.807 54.4066C180.215 54.0241 180.752 53.8088 181.312 53.8034H182.78C183.046 53.8001 183.31 53.8525 183.554 53.957C183.798 54.0616 184.018 54.216 184.2 54.4105C184.381 54.6049 184.52 54.8351 184.607 55.0863C184.694 55.3375 184.728 55.6041 184.706 55.8691L182.903 82.5502C182.861 83.1082 182.611 83.6301 182.203 84.0127C181.794 84.3952 181.257 84.6105 180.698 84.6159Z" fill="#263238"/>
<path d="M111.178 66.8172H109.715C109.499 66.8201 109.284 66.778 109.085 66.6935C108.886 66.6091 108.706 66.4842 108.557 66.3268C108.409 66.1693 108.295 65.9827 108.222 65.7788C108.149 65.575 108.12 65.3582 108.135 65.1423L108.789 55.506C108.83 55.0537 109.037 54.6325 109.37 54.3233C109.702 54.0142 110.138 53.8389 110.592 53.8311H112.06C112.276 53.8299 112.49 53.8731 112.688 53.9582C112.886 54.0432 113.065 54.1683 113.212 54.3254C113.36 54.4826 113.474 54.6686 113.547 54.8717C113.619 55.0749 113.649 55.2908 113.635 55.506L112.981 65.1423C112.941 65.5951 112.735 66.017 112.402 66.3264C112.069 66.6358 111.633 66.8107 111.178 66.8172Z" fill="#393715"/>
<path d="M110.017 84.024H108.549C108.333 84.0261 108.119 83.9834 107.92 83.8987C107.722 83.8139 107.543 83.6889 107.395 83.5315C107.247 83.3742 107.133 83.1879 107.061 82.9844C106.988 82.7808 106.959 82.5646 106.974 82.3491L107.628 72.7129C107.669 72.2605 107.876 71.8393 108.209 71.5302C108.541 71.221 108.977 71.0458 109.431 71.038H110.91C111.126 71.0367 111.34 71.08 111.538 71.165C111.736 71.2501 111.915 71.3751 112.063 71.5323C112.21 71.6895 112.324 71.8754 112.397 72.0786C112.469 72.2817 112.499 72.4977 112.485 72.7129L111.832 82.3491C111.791 82.8039 111.583 83.2273 111.248 83.537C110.912 83.8466 110.474 84.0203 110.017 84.024Z" fill="#393715"/>
<path d="M166.545 182.117H108.275C107.326 182.128 106.384 181.941 105.511 181.568C104.638 181.195 103.852 180.644 103.203 179.951C102.554 179.258 102.056 178.438 101.741 177.542C101.426 176.646 101.302 175.694 101.374 174.748L110.799 35.1729C110.969 33.1789 111.875 31.3195 113.34 29.9563C114.805 28.5932 116.725 27.8238 118.726 27.7978H176.974C177.924 27.7872 178.866 27.9744 179.739 28.3477C180.613 28.7209 181.399 29.2719 182.048 29.9656C182.697 30.6593 183.195 31.4806 183.509 32.3771C183.824 33.2736 183.948 34.2258 183.874 35.1729L174.445 174.748C174.275 176.737 173.373 178.591 171.913 179.953C170.454 181.315 168.54 182.086 166.545 182.117Z" fill="#393715"/>
<path opacity="0.3" d="M101.989 173.184L111.189 36.9817H183.243L174.043 173.184H101.989Z" fill="white"/>
<path opacity="0.1" d="M130.434 173.184L156.15 36.9817H172.29L146.575 173.184H130.434Z" fill="white"/>
<path opacity="0.1" d="M118.241 173.184L143.956 36.9817H152.135L126.42 173.184H118.241Z" fill="white"/>
<path d="M140.578 31.2202H154.63C154.748 31.2181 154.864 31.2408 154.972 31.2867C155.08 31.3325 155.177 31.4005 155.257 31.4863C155.337 31.5721 155.398 31.6738 155.437 31.7847C155.475 31.8956 155.489 32.0133 155.479 32.1302C155.46 32.3762 155.35 32.6061 155.17 32.7754C154.99 32.9446 154.754 33.041 154.508 33.0458H140.455C140.338 33.047 140.221 33.0236 140.113 32.9771C140.005 32.9307 139.908 32.8621 139.828 32.7759C139.748 32.6896 139.687 32.5877 139.649 32.4765C139.611 32.3653 139.597 32.2473 139.607 32.1302C139.626 31.8847 139.736 31.6554 139.916 31.4871C140.096 31.3187 140.332 31.2236 140.578 31.2202Z" fill="white"/>
<path d="M137.653 195.544L132.728 196.013L130.953 184.652L135.877 184.177L137.653 195.544Z" fill="#FFB573"/>
<path d="M132.165 193.607L137.323 192.005C137.412 191.974 137.51 191.979 137.595 192.018C137.681 192.058 137.747 192.129 137.781 192.217L139.456 196.309C139.498 196.419 139.516 196.536 139.51 196.653C139.504 196.77 139.474 196.885 139.422 196.99C139.369 197.095 139.296 197.188 139.205 197.263C139.115 197.338 139.01 197.393 138.898 197.426C137.033 197.984 135.258 198.113 133.008 199.101C130.378 200.217 129.278 201.714 126.448 201.714C124.421 201.714 123.963 199.855 124.823 199.598C128.731 198.414 128.217 197.443 131.054 194.389C131.349 194.035 131.732 193.765 132.165 193.607Z" fill="#263238"/>
<path opacity="0.2" d="M130.953 184.652L131.869 190.514L136.798 190.039L135.883 184.177L130.953 184.652Z" fill="black"/>
<path d="M134.515 41.0909C128.056 40.3316 121.63 40.8396 115.181 42.0902C114.107 42.2988 113.127 42.8441 112.383 43.6472C111.639 44.4502 111.17 45.4693 111.044 46.5566C110.346 52.7314 109.548 66.5716 112.663 87.2175L139.06 84.9843C139.11 81.2382 136.447 64.1709 138.647 46.4617C138.737 45.8365 138.701 45.1997 138.54 44.5887C138.38 43.9778 138.099 43.4051 137.714 42.9045C137.329 42.4038 136.848 41.9854 136.298 41.6739C135.749 41.3625 135.143 41.1642 134.515 41.0909Z" fill="white"/>
<path d="M119.145 46.3834L120.089 48.2705C120.133 48.3657 120.203 48.4466 120.291 48.5038C120.378 48.5611 120.481 48.5924 120.586 48.5943L121.607 48.6501C121.79 48.658 121.969 48.6028 122.115 48.4938L123.874 47.1818L121.702 45.6018L119.145 46.3834Z" fill="#263238"/>
<path d="M121.641 48.1087C121.268 47.9362 120.846 47.9025 120.451 48.0138C119.619 50.9449 118.709 59.3585 118.615 63.0879C121.138 70.4407 121.964 71.1833 121.964 71.1833L123.243 62.3342C123.243 62.3342 121.808 53.2842 121.641 48.1087Z" fill="#263238"/>
<path d="M128.927 28.3616C128.324 32.0017 127.81 38.6511 130.423 41.0015C128.508 43.0114 126.001 45.3395 121.702 45.6019C117.403 45.8643 118.068 42.8886 119.156 41.2974C123.171 40.2255 122.975 37.233 122.188 34.4359L128.927 28.3616Z" fill="#FFB573"/>
<path d="M131.517 40.6833C131.213 40.552 130.897 40.4492 130.573 40.3762C130.494 40.3553 130.411 40.3609 130.335 40.3921C130.259 40.4234 130.196 40.4786 130.155 40.5493C129.742 41.2527 128.48 44.396 121.702 45.6019C122.819 46.2607 124.298 48.3041 124.935 49.2867C126.967 48.2315 132.254 45.0771 131.751 40.9959C131.741 40.9285 131.714 40.8647 131.674 40.8101C131.633 40.7556 131.579 40.712 131.517 40.6833Z" fill="#F5F5F5"/>
<path d="M119.195 41.4648C119.21 41.4013 119.208 41.3352 119.19 41.2726C119.172 41.2099 119.139 41.1527 119.094 41.1061C119.048 41.0595 118.992 41.025 118.93 41.0058C118.867 40.9865 118.801 40.9831 118.738 40.9958C118.503 41.0414 118.272 41.103 118.045 41.1801C117.993 41.2005 117.944 41.2288 117.9 41.2638C117.381 41.744 114.55 45.8307 117.202 49.1358C117.761 48.237 119.687 46.1992 121.702 45.6018C119.793 44.742 118.855 43.1397 119.195 41.4648Z" fill="#F5F5F5"/>
<path opacity="0.2" d="M126.18 30.8405L122.194 34.4359C122.386 35.0853 122.52 35.7504 122.596 36.4234C124.137 36.161 126.208 34.4136 126.319 32.7945C126.395 32.1401 126.348 31.4774 126.18 30.8405Z" fill="black"/>
<path d="M120.853 17.3575C117.414 18.703 117.191 21.528 117.504 24.6154C117.816 27.7028 121.177 25.6594 121.925 23.7277C122.674 21.796 125.616 15.4928 120.853 17.3575Z" fill="#263238"/>
<path d="M131.824 23.5155C130.869 28.3782 130.551 31.2647 127.771 33.5034C123.578 36.8532 117.9 33.9612 117.398 28.9477C116.945 24.4311 118.581 17.2234 123.589 15.8165C124.681 15.495 125.838 15.4639 126.946 15.7265C128.054 15.9891 129.074 16.5361 129.906 17.3137C130.738 18.0912 131.352 19.0722 131.688 20.1599C132.025 21.2476 132.072 22.4042 131.824 23.5155Z" fill="#FFB573"/>
<path d="M131.623 27.5409C127.531 27.7587 128.396 25.4361 129.139 24.1018C129.881 22.7675 128.368 20.5622 129.357 19.4177C127.592 20.1211 125.733 19.5405 123.372 17.8991C121.54 16.6206 119.246 21.729 117.013 19.1664C114.902 16.749 116.862 13.1033 121.931 12.5171C127.001 11.9309 127.922 15.5152 131.249 15.1969C134.577 14.8787 133.421 17.6199 132.768 18.1782C135.559 18.3625 137.083 21.0311 131.623 27.5409Z" fill="#263238"/>
<path d="M132.126 18.5188C132.766 18.1676 133.301 17.6517 133.675 17.0245C134.049 16.3972 134.248 15.6815 134.253 14.9512C135.358 16.8885 135.241 19.0882 132.126 18.5188Z" fill="#263238"/>
<path d="M121.518 28.7079C121.963 28.7849 122.419 28.7712 122.858 28.6675C123.298 28.5639 123.712 28.3725 124.075 28.1049C124.086 28.0945 124.095 28.0819 124.101 28.068C124.107 28.0541 124.11 28.0391 124.11 28.024C124.11 28.0088 124.107 27.9938 124.101 27.9799C124.095 27.966 124.086 27.9535 124.075 27.943C124.053 27.9222 124.024 27.9106 123.994 27.9106C123.964 27.9106 123.935 27.9222 123.913 27.943C123.506 28.2316 123.037 28.4217 122.544 28.4982C122.051 28.5748 121.547 28.5357 121.071 28.3841C121.041 28.3765 121.009 28.3803 120.981 28.3947C120.954 28.4091 120.932 28.4331 120.921 28.4622C120.912 28.4919 120.915 28.5237 120.93 28.5509C120.945 28.578 120.969 28.5984 120.999 28.6074C121.169 28.6564 121.342 28.69 121.518 28.7079Z" fill="#263238"/>
<path d="M132.812 29.0315C132.048 30.0166 130.927 30.6622 129.691 30.8292C128.067 31.0414 127.525 29.5284 128.206 28.1159C128.826 26.843 130.439 25.2016 131.936 25.6426C133.432 26.0837 133.75 27.8032 132.812 29.0315Z" fill="#FFB573"/>
<path d="M131.199 134.757C131.394 120.179 133.259 85.4589 133.259 85.4589L112.68 87.1952C112.68 87.1952 116.772 122.977 119.24 137.85C121.808 153.309 129.686 189.526 129.686 189.526L138.06 188.811C138.06 188.811 135.001 146.029 131.199 134.757Z" fill="#263238"/>
<path d="M129.183 189.755L139.115 188.912L138.725 185.707L128.374 186.399L129.183 189.755Z" fill="#393715"/>
<path d="M124.488 23.8059C124.438 24.2023 124.181 24.5038 123.93 24.4759C123.679 24.448 123.506 24.1018 123.561 23.6999C123.617 23.2979 123.869 23.002 124.12 23.0299C124.371 23.0578 124.544 23.4095 124.488 23.8059Z" fill="#263238"/>
<path d="M119.932 23.4487C119.882 23.8507 119.625 24.1466 119.374 24.1187C119.123 24.0907 118.949 23.7446 119.005 23.3482C119.061 22.9518 119.312 22.6503 119.564 22.6782C119.815 22.7062 119.988 23.03 119.932 23.4487Z" fill="#263238"/>
<path d="M121.216 23.9175C120.544 24.9507 119.737 25.8895 118.816 26.709C119.408 27.3288 120.63 27.1613 120.63 27.1613L121.216 23.9175Z" fill="#ED893E"/>
<path opacity="0.4" d="M117.052 23.5491C116.968 24.1855 117.61 24.7159 118.498 24.8276C119.385 24.9392 120.206 24.4535 120.284 23.8171" fill="#393715"/>
<path opacity="0.4" d="M122.327 24.1408C122.204 24.7717 122.824 25.3412 123.695 25.5086C124.566 25.6761 125.42 25.2295 125.537 24.6042" fill="#393715"/>
<path d="M124.042 25.6816C123.941 25.6872 123.841 25.6872 123.74 25.6816C123.311 25.6303 122.908 25.4492 122.585 25.1624C122.443 25.0418 122.333 24.8892 122.263 24.7172C122.193 24.5453 122.166 24.3591 122.183 24.1742C121.899 24.0509 121.597 23.9754 121.289 23.9509C120.98 23.8736 120.656 23.8736 120.346 23.9509C120.268 24.632 119.419 25.101 118.47 24.9838C118.041 24.9369 117.637 24.7573 117.314 24.4701C117.174 24.3489 117.064 24.1962 116.994 24.0244C116.924 23.8526 116.896 23.6667 116.912 23.4819L117.18 23.5154C117.169 23.6582 117.192 23.8016 117.247 23.9337C117.303 24.0657 117.389 24.1827 117.498 24.2747C117.78 24.5223 118.131 24.6764 118.503 24.7158C119.307 24.8219 120.022 24.4478 120.095 23.8895C120.134 23.5768 120.781 23.5992 121.317 23.6662C121.853 23.7332 122.49 23.8839 122.434 24.191C122.422 24.3338 122.445 24.4773 122.5 24.6095C122.556 24.7416 122.642 24.8585 122.752 24.9503C123.037 25.1945 123.387 25.35 123.759 25.3976C124.131 25.4453 124.509 25.3829 124.846 25.2182C124.976 25.1577 125.089 25.0667 125.177 24.953C125.264 24.8394 125.323 24.7063 125.348 24.565V24.431L132.238 25.3187L132.204 25.5867L125.571 24.7325C125.523 24.8879 125.444 25.0319 125.338 25.1557C125.233 25.2795 125.103 25.3806 124.957 25.4527C124.675 25.6021 124.361 25.6806 124.042 25.6816Z" fill="#263238"/>
<path d="M126.241 22.0529C126.281 22.053 126.32 22.0413 126.353 22.0194C126.407 21.9878 126.447 21.9362 126.464 21.8757C126.48 21.8151 126.473 21.7505 126.442 21.6955C126.269 21.3708 126.019 21.0939 125.713 20.8893C125.407 20.6848 125.055 20.559 124.689 20.5231C124.626 20.52 124.565 20.5417 124.518 20.5835C124.471 20.6252 124.442 20.6837 124.438 20.7464C124.435 20.8077 124.456 20.8678 124.497 20.9137C124.537 20.9596 124.594 20.9878 124.656 20.9921C124.945 21.0261 125.222 21.1303 125.463 21.2957C125.703 21.4611 125.899 21.6827 126.035 21.9412C126.056 21.9767 126.086 22.0059 126.123 22.0255C126.159 22.0452 126.2 22.0546 126.241 22.0529Z" fill="#263238"/>
<path d="M118.458 21.422C118.497 21.4257 118.536 21.4201 118.572 21.4055C118.608 21.3909 118.64 21.3678 118.665 21.3382C118.846 21.1018 119.079 20.911 119.347 20.7811C119.614 20.6511 119.908 20.5857 120.206 20.5901C120.237 20.5932 120.268 20.5901 120.297 20.5811C120.327 20.5721 120.355 20.5573 120.379 20.5375C120.402 20.5178 120.422 20.4936 120.437 20.4662C120.451 20.4388 120.46 20.4088 120.463 20.3779C120.467 20.3478 120.464 20.3173 120.456 20.288C120.448 20.2587 120.435 20.2314 120.416 20.2075C120.397 20.1836 120.374 20.1636 120.348 20.1488C120.321 20.134 120.292 20.1246 120.262 20.1211C119.887 20.1113 119.515 20.1895 119.175 20.3495C118.836 20.5095 118.539 20.7468 118.308 21.0423C118.268 21.0898 118.248 21.1511 118.254 21.2128C118.259 21.2745 118.288 21.3316 118.336 21.3717C118.372 21.3979 118.414 21.4151 118.458 21.422Z" fill="#263238"/>
<path d="M148.344 132.406C144.073 110.454 143.113 93.2861 139.06 84.9507L119.123 87.1839C119.123 87.1839 130.998 119.895 136.799 133.858C142.823 148.373 154.714 173.173 154.714 173.173H164.674C164.674 173.173 155.379 142.405 148.344 132.406Z" fill="#263238"/>
<path d="M85.1503 49.3034L82.9953 47.9412C82.6454 47.7158 82.2283 47.6188 81.8149 47.6667C81.4016 47.7145 81.0176 47.9043 80.7286 48.2036L79.2658 49.7445C79.1083 49.9108 78.9865 50.1076 78.9081 50.3229C78.8297 50.5381 78.7962 50.7671 78.8098 50.9958C78.8234 51.2245 78.8838 51.4479 78.9872 51.6524C79.0906 51.8568 79.2348 52.0378 79.411 52.1843L80.455 53.0775C81.3631 53.8471 82.4225 54.4177 83.5647 54.7524L86.7191 55.6848L88.7904 53.4516C89.4213 51.1235 85.1503 49.3034 85.1503 49.3034Z" fill="#FFB573"/>
<path d="M117.052 48.2595C116.27 50.1688 115.505 51.9442 114.673 53.7587C113.841 55.5732 112.998 57.3653 112.066 59.1463C111.134 60.9273 110.14 62.6971 109.012 64.4725C108.454 65.3546 107.834 66.2367 107.131 67.1244C106.374 68.1032 105.513 68.9962 104.563 69.7875C103.935 70.3005 103.242 70.7285 102.502 71.0604C102.268 71.1497 102.05 71.2391 101.793 71.3172L101.403 71.4233C101.206 71.4716 101.006 71.507 100.805 71.5294C100.125 71.606 99.4357 71.5568 98.773 71.3842C97.9444 71.1523 97.157 70.7925 96.4393 70.3179C95.9018 69.9824 95.3887 69.6093 94.904 69.2013C93.2927 67.7945 91.8076 66.2496 90.4655 64.5841C89.1647 63.0209 87.9364 61.4521 86.7584 59.8497C85.5804 58.2474 84.447 56.673 83.2858 54.9925L89.4606 51.0063C91.4092 54.1518 93.5653 57.164 95.9145 60.0228C96.9944 61.347 98.1841 62.5778 99.4709 63.702C99.7201 63.906 99.9832 64.0925 100.258 64.2603C100.465 64.3999 100.671 64.4557 100.526 64.4055C100.33 64.3515 100.124 64.3401 99.9231 64.372C99.8419 64.3795 99.7615 64.3944 99.683 64.4166H99.6383C99.6104 64.4166 99.6104 64.4166 99.6049 64.4166C99.7318 64.3337 99.8531 64.2423 99.9677 64.1431C100.477 63.6805 100.939 63.168 101.347 62.6133C101.821 61.9769 102.296 61.2622 102.748 60.5197C103.672 58.9759 104.515 57.3844 105.272 55.7518C106.053 54.0769 106.807 52.402 107.505 50.6601C108.203 48.9182 108.867 47.1484 109.431 45.4568L117.052 48.2595Z" fill="#393715"/>
<g opacity="0.6">
<path opacity="0.6" d="M117.052 48.2595C116.27 50.1688 115.505 51.9442 114.673 53.7587C113.841 55.5732 112.998 57.3653 112.066 59.1463C111.134 60.9273 110.14 62.6971 109.012 64.4725C108.454 65.3546 107.834 66.2367 107.131 67.1244C106.374 68.1032 105.513 68.9962 104.563 69.7875C103.935 70.3005 103.242 70.7285 102.502 71.0604C102.268 71.1497 102.05 71.2391 101.793 71.3172L101.403 71.4233C101.206 71.4716 101.006 71.507 100.805 71.5294C100.125 71.606 99.4357 71.5568 98.773 71.3842C97.9444 71.1523 97.157 70.7925 96.4393 70.3179C95.9018 69.9824 95.3887 69.6093 94.904 69.2013C93.2927 67.7945 91.8076 66.2496 90.4655 64.5841C89.1647 63.0209 87.9364 61.4521 86.7584 59.8497C85.5804 58.2474 84.447 56.673 83.2858 54.9925L89.4606 51.0063C91.4092 54.1518 93.5653 57.164 95.9145 60.0228C96.9944 61.347 98.1841 62.5778 99.4709 63.702C99.7201 63.906 99.9832 64.0925 100.258 64.2603C100.465 64.3999 100.671 64.4557 100.526 64.4055C100.33 64.3515 100.124 64.3401 99.9231 64.372C99.8419 64.3795 99.7615 64.3944 99.683 64.4166H99.6383C99.6104 64.4166 99.6104 64.4166 99.6049 64.4166C99.7318 64.3337 99.8531 64.2423 99.9677 64.1431C100.477 63.6805 100.939 63.168 101.347 62.6133C101.821 61.9769 102.296 61.2622 102.748 60.5197C103.672 58.9759 104.515 57.3844 105.272 55.7518C106.053 54.0769 106.807 52.402 107.505 50.6601C108.203 48.9182 108.867 47.1484 109.431 45.4568L117.052 48.2595Z" fill="white"/>
</g>
<path d="M131.668 39.6894C129.574 43.5975 122.121 58.4874 121.216 67.677C117.917 59.3025 118.637 40.7781 118.637 40.7781C116.286 41.0073 113.979 41.5713 111.787 42.453C111.08 42.7433 110.468 43.2234 110.018 43.8403C109.567 44.4572 109.297 45.1867 109.235 45.948C108.593 55.533 108.896 65.158 110.14 74.6836C112.457 92.7167 114.606 120.76 114.606 120.76C114.606 120.76 133.058 119.99 147.295 116.986C145.558 103.202 139.618 80.0991 139.562 73.9132C139.495 65.9518 139.679 50.3865 139.931 43.8878C139.973 42.9703 139.685 42.068 139.12 41.3441C138.555 40.6201 137.749 40.1223 136.849 39.9407C135.141 39.6242 133.398 39.5397 131.668 39.6894Z" fill="#393715"/>
<path opacity="0.7" d="M131.668 39.6894C129.574 43.5975 122.121 58.4874 121.216 67.677C117.917 59.3025 118.637 40.7781 118.637 40.7781C116.286 41.0073 113.979 41.5713 111.787 42.453C111.08 42.7433 110.468 43.2234 110.018 43.8403C109.567 44.4572 109.297 45.1867 109.235 45.948C108.593 55.533 108.896 65.158 110.14 74.6836C112.457 92.7167 114.606 120.76 114.606 120.76C114.606 120.76 133.058 119.99 147.295 116.986C145.558 103.202 139.618 80.0991 139.562 73.9132C139.495 65.9518 139.679 50.3809 139.931 43.8823C139.983 42.9927 139.721 42.113 139.189 41.3981C138.656 40.6832 137.889 40.179 137.022 39.9742C135.259 39.6287 133.457 39.5329 131.668 39.6894Z" fill="white"/>
<path d="M127.319 117.768C124.114 100.086 121.574 74.1423 121.367 71.0214H121.652C121.858 74.1423 124.404 100.053 127.603 117.734L127.319 117.768Z" fill="white"/>
<path d="M125.722 86.3132H108.705C108.361 86.2977 108.032 86.1713 107.766 85.9529C107.5 85.7344 107.313 85.4358 107.231 85.1017L101.542 58.655C101.5 58.5107 101.493 58.3585 101.522 58.211C101.551 58.0635 101.614 57.9249 101.707 57.8066C101.799 57.6883 101.919 57.5937 102.055 57.5306C102.191 57.4675 102.341 57.4376 102.491 57.4435H119.502C119.847 57.4579 120.178 57.5837 120.444 57.8022C120.711 58.0208 120.9 58.32 120.982 58.655L126.671 85.1017C126.713 85.2461 126.719 85.3983 126.691 85.5458C126.662 85.6933 126.599 85.8318 126.506 85.9501C126.414 86.0684 126.294 86.163 126.158 86.2261C126.021 86.2892 125.872 86.3191 125.722 86.3132Z" fill="white"/>
<path d="M125.192 86.5363H107.884C107.535 86.52 107.199 86.3911 106.929 86.1688C106.658 85.9464 106.466 85.6425 106.383 85.3025L100.593 58.4092C100.552 58.2618 100.546 58.1067 100.575 57.9566C100.605 57.8064 100.67 57.6655 100.765 57.5452C100.86 57.4249 100.981 57.3287 101.12 57.2644C101.259 57.2002 101.411 57.1696 101.564 57.1754H118.872C119.222 57.1917 119.557 57.3206 119.827 57.5429C120.098 57.7653 120.29 58.0691 120.374 58.4092L126.158 85.3025C126.2 85.4495 126.207 85.6044 126.178 85.7547C126.149 85.9049 126.085 86.0461 125.99 86.1666C125.896 86.2871 125.774 86.3834 125.636 86.4477C125.497 86.512 125.345 86.5424 125.192 86.5363Z" fill="#393715"/>
<path d="M127.174 71.3617L122.869 71.1998C122.352 71.1819 121.836 71.2732 121.356 71.4677L119.123 72.361C118.914 72.444 118.723 72.5684 118.563 72.7268C118.402 72.8852 118.276 73.0743 118.19 73.2828C118.105 73.4913 118.062 73.715 118.065 73.9403C118.068 74.1656 118.117 74.388 118.207 74.5942L119.101 76.5259C119.281 76.9006 119.585 77.2017 119.961 77.3786C120.337 77.5556 120.763 77.5975 121.166 77.4974L123.629 76.8832C123.629 76.8832 128.251 76.5148 128.419 74.0918L127.174 71.3617Z" fill="#FFB573"/>
<path d="M139.06 42.0845C140.126 43.7594 141.103 45.2892 142.063 46.9306C143.024 48.572 143.967 50.1966 144.855 51.8938C145.742 53.5911 146.585 55.3441 147.35 57.22C147.747 58.2024 148.087 59.2072 148.366 60.2293C148.726 61.4749 148.892 62.7686 148.858 64.0648V64.2825C148.86 64.3197 148.86 64.357 148.858 64.3942C148.858 64.5952 148.802 64.7961 148.763 64.9971C148.724 65.1981 148.673 65.3544 148.618 65.5554C148.562 65.7564 148.5 65.8625 148.439 66.0188C148.226 66.5019 147.952 66.9559 147.624 67.3699C147.168 67.9399 146.649 68.4567 146.077 68.9108C145.199 69.6025 144.266 70.2206 143.286 70.7588C141.562 71.7012 139.788 72.5474 137.971 73.2935C136.212 74.0416 134.459 74.7227 132.695 75.3648C130.931 76.0068 129.194 76.6265 127.358 77.2406L125.23 70.2061C126.905 69.7483 128.614 69.1844 130.283 68.6149C131.952 68.0454 133.633 67.409 135.218 66.7446C136.775 66.1018 138.292 65.3692 139.763 64.5505C140.384 64.2064 140.976 63.8124 141.533 63.3725C141.679 63.2615 141.811 63.132 141.924 62.9873C141.876 63.0414 141.838 63.1038 141.812 63.1715C141.812 63.2217 141.784 63.2552 141.756 63.3167C141.734 63.3822 141.717 63.4494 141.706 63.5176C141.682 63.6034 141.668 63.6913 141.661 63.78C141.661 63.8135 141.661 63.8191 141.661 63.808V63.7689C141.622 63.2391 141.519 62.7161 141.354 62.2112C141.131 61.4803 140.866 60.7626 140.561 60.0618C139.879 58.5164 139.107 57.0121 138.25 55.5563C137.379 54.06 136.452 52.5638 135.459 51.0899C134.465 49.616 133.449 48.1477 132.427 46.8077L139.06 42.0845Z" fill="#393715"/>
<g opacity="0.7">
<path opacity="0.7" d="M139.06 42.0845C140.126 43.7594 141.103 45.2892 142.063 46.9306C143.024 48.572 143.967 50.1966 144.855 51.8938C145.742 53.5911 146.585 55.3441 147.35 57.22C147.747 58.2024 148.087 59.2072 148.366 60.2293C148.726 61.4749 148.892 62.7686 148.858 64.0648V64.2825C148.86 64.3197 148.86 64.357 148.858 64.3942C148.858 64.5952 148.802 64.7961 148.763 64.9971C148.724 65.1981 148.673 65.3544 148.618 65.5554C148.562 65.7564 148.5 65.8625 148.439 66.0188C148.226 66.5019 147.952 66.9559 147.624 67.3699C147.168 67.9399 146.649 68.4567 146.077 68.9108C145.199 69.6025 144.266 70.2206 143.286 70.7588C141.562 71.7012 139.788 72.5474 137.971 73.2935C136.212 74.0416 134.459 74.7227 132.695 75.3648C130.931 76.0068 129.194 76.6265 127.358 77.2406L125.23 70.2061C126.905 69.7483 128.614 69.1844 130.283 68.6149C131.952 68.0454 133.633 67.409 135.218 66.7446C136.775 66.1018 138.292 65.3692 139.763 64.5505C140.384 64.2064 140.976 63.8124 141.533 63.3725C141.679 63.2615 141.811 63.132 141.924 62.9873C141.876 63.0414 141.838 63.1038 141.812 63.1715C141.812 63.2217 141.784 63.2552 141.756 63.3167C141.734 63.3822 141.717 63.4494 141.706 63.5176C141.682 63.6034 141.668 63.6913 141.661 63.78C141.661 63.8135 141.661 63.8191 141.661 63.808V63.7689C141.622 63.2391 141.519 62.7161 141.354 62.2112C141.131 61.4803 140.866 60.7626 140.561 60.0618C139.879 58.5164 139.107 57.0121 138.25 55.5563C137.379 54.06 136.452 52.5638 135.459 51.0899C134.465 49.616 133.449 48.1477 132.427 46.8077L139.06 42.0845Z" fill="white"/>
</g>
<path d="M133.41 61.4576C133.372 61.4571 133.336 61.4471 133.304 61.4286C133.271 61.41 133.244 61.3835 133.225 61.3515C133.209 61.3271 133.198 61.2997 133.192 61.2709C133.187 61.242 133.187 61.2124 133.193 61.1837C133.2 61.155 133.212 61.1279 133.229 61.104C133.246 61.08 133.267 61.0598 133.292 61.0444L134.163 60.4861C134.976 59.9735 135.614 59.226 135.993 58.3427C136.372 57.4595 136.474 56.482 136.285 55.5396L134.532 46.6627C134.404 45.9989 134.055 45.3979 133.543 44.9567C133.031 44.5156 132.384 44.2602 131.709 44.2318C131.034 44.2033 130.368 44.4036 129.821 44.8002C129.273 45.1967 128.876 45.7664 128.692 46.417L126.208 55.1209C125.936 56.041 125.951 57.0218 126.25 57.9332C126.549 58.8446 127.119 59.6434 127.882 60.2237L128.709 60.849C128.755 60.8854 128.786 60.9387 128.793 60.9973C128.8 61.0559 128.784 61.115 128.748 61.1617C128.73 61.1845 128.708 61.2037 128.684 61.2181C128.659 61.2324 128.631 61.2417 128.602 61.2453C128.574 61.2489 128.545 61.2469 128.517 61.2392C128.489 61.2316 128.463 61.2185 128.441 61.2008L127.659 60.5811C126.82 59.9489 126.192 59.0763 125.86 58.0791C125.528 57.082 125.507 56.0074 125.8 54.9981L128.29 46.2942C128.504 45.551 128.961 44.9011 129.588 44.4489C130.216 43.9967 130.977 43.7683 131.75 43.8005C132.522 43.8327 133.262 44.1236 133.849 44.6264C134.437 45.1292 134.838 45.8149 134.99 46.5733L136.743 55.4559C136.95 56.4854 136.839 57.5534 136.425 58.5186C136.011 59.4837 135.314 60.3003 134.426 60.8602L133.549 61.4185C133.53 61.4341 133.507 61.4456 133.483 61.4524C133.459 61.4591 133.434 61.4609 133.41 61.4576Z" fill="#263238"/>
<path d="M134.75 46.8469L128.48 46.5845C128.451 46.583 128.422 46.5758 128.395 46.5633C128.369 46.5507 128.345 46.533 128.325 46.5112C128.306 46.4895 128.29 46.464 128.281 46.4363C128.271 46.4087 128.266 46.3793 128.268 46.35C128.273 46.2917 128.301 46.2377 128.344 46.1984C128.387 46.1592 128.444 46.1376 128.502 46.1378L134.766 46.4002C134.796 46.4017 134.825 46.4089 134.851 46.4214C134.878 46.434 134.901 46.4517 134.921 46.4735C134.941 46.4952 134.956 46.5207 134.966 46.5484C134.976 46.576 134.98 46.6054 134.979 46.6347C134.978 46.6638 134.971 46.6924 134.959 46.719C134.947 46.7455 134.93 46.7693 134.909 46.7891C134.888 46.8089 134.863 46.8242 134.835 46.8341C134.808 46.844 134.779 46.8484 134.75 46.8469Z" fill="#263238"/>
<path d="M131.702 44.2453C131.644 44.2439 131.589 44.2207 131.547 44.1803C131.506 44.1399 131.481 44.0854 131.478 44.0276C131.478 42.911 131.132 40.9737 130.088 40.5493C130.059 40.5396 130.033 40.5241 130.01 40.5038C129.987 40.4834 129.969 40.4586 129.956 40.4309C129.944 40.4032 129.937 40.3732 129.936 40.3427C129.935 40.3123 129.941 40.282 129.952 40.2537C129.964 40.2255 129.981 40.1999 130.003 40.1785C130.024 40.1571 130.05 40.1404 130.079 40.1294C130.107 40.1184 130.137 40.1133 130.168 40.1145C130.198 40.1157 130.228 40.123 130.256 40.1362C131.802 40.7727 131.931 43.687 131.931 44.0443C131.931 44.1031 131.908 44.1597 131.867 44.2023C131.827 44.245 131.772 44.2703 131.713 44.2732L131.702 44.2453Z" fill="#263238"/>
<path d="M112.524 51.8327H112.479C112.422 51.8206 112.371 51.7862 112.339 51.7371C112.306 51.6879 112.295 51.628 112.306 51.5703C113.043 47.9022 116.091 42.1127 118.777 40.4043C118.801 40.389 118.829 40.3788 118.857 40.3742C118.886 40.3696 118.915 40.3708 118.943 40.3775C118.971 40.3843 118.997 40.3965 119.021 40.4136C119.044 40.4306 119.063 40.4521 119.078 40.4769C119.095 40.5008 119.106 40.5278 119.111 40.5562C119.117 40.5846 119.116 40.6138 119.11 40.6421C119.104 40.6703 119.092 40.697 119.075 40.7204C119.058 40.7438 119.036 40.7635 119.011 40.7783C116.415 42.4197 113.456 48.0362 112.742 51.6484C112.732 51.6997 112.706 51.7462 112.666 51.7798C112.626 51.8135 112.576 51.8322 112.524 51.8327Z" fill="#263238"/>
<path d="M114.355 52.4075C114.009 53.2952 113.238 53.8312 112.68 53.6023C112.122 53.3733 111.904 52.4857 112.25 51.5756C112.596 50.6656 113.367 50.152 113.925 50.3865C114.483 50.6209 114.707 51.5198 114.355 52.4075Z" fill="white"/>
<path d="M129.094 61.0556C129.094 61.4687 128.837 61.7981 128.564 61.7869C128.29 61.7758 128.078 61.4296 128.095 61.0109C128.111 60.5922 128.352 60.2628 128.625 60.2795C128.899 60.2963 129.111 60.6369 129.094 61.0556Z" fill="white"/>
<path d="M133.907 61.2567C133.907 61.6698 133.655 61.9992 133.376 61.988C133.097 61.9769 132.896 61.6307 132.913 61.212C132.93 60.7933 133.164 60.4695 133.471 60.4806C133.778 60.4918 133.923 60.8547 133.907 61.2567Z" fill="white"/>
<path d="M228.583 53.513L228.024 53.4795C228.117 52.2909 227.962 51.0959 227.569 49.9704C227.175 48.8449 226.552 47.8135 225.739 46.9416C224.926 46.0696 223.94 45.3762 222.845 44.9053C221.75 44.4344 220.569 44.1963 219.376 44.2062V43.6479C220.645 43.6371 221.902 43.8901 223.068 44.3908C224.233 44.8916 225.282 45.6291 226.148 46.5567C227.014 47.4842 227.677 48.5816 228.096 49.7791C228.515 50.9766 228.681 52.2481 228.583 53.513Z" fill="#393715"/>
<path d="M228.877 55.8539L228.553 60.4766L229.112 60.5157L229.435 55.893L228.877 55.8539Z" fill="#393715"/>
<path d="M219.376 45.6019H180.853C178.75 45.6365 176.734 46.4524 175.199 47.8909C173.663 49.3294 172.718 51.2876 172.546 53.3846L172.194 58.5712C172.114 59.5692 172.243 60.5729 172.573 61.5184C172.902 62.4638 173.425 63.3302 174.108 64.0624C174.79 64.7946 175.618 65.3765 176.539 65.7711C177.459 66.1656 178.451 66.3641 179.452 66.3539H217.975L225.445 70.9599L226.628 53.3846C226.709 52.3869 226.581 51.3834 226.252 50.4379C225.923 49.4925 225.401 48.626 224.719 47.8937C224.036 47.1614 223.209 46.5794 222.289 46.1848C221.369 45.7902 220.377 45.5917 219.376 45.6019Z" fill="#393715"/>
<path d="M217.422 53.0331H181.741V54.3283H217.422V53.0331Z" fill="white"/>
<path d="M217.11 57.6278H190.618V58.9231H217.11V57.6278Z" fill="white"/>
<path d="M161.425 73.3495H200.796C201.82 73.3384 202.834 73.5409 203.775 73.9439C204.716 74.347 205.563 74.9419 206.261 75.6905C206.959 76.4391 207.494 77.3251 207.83 78.2918C208.167 79.2586 208.298 80.2849 208.216 81.3053L207.858 86.6091C207.682 88.7521 206.715 90.7529 205.145 92.2231C203.576 93.6932 201.517 94.5279 199.367 94.5649H159.99L151.716 99.2825L152.933 81.3053C153.109 79.1618 154.075 77.1603 155.645 75.6899C157.214 74.2195 159.274 73.3853 161.425 73.3495Z" fill="white"/>
<path opacity="0.15" d="M161.425 73.3495H200.796C201.82 73.3384 202.834 73.5409 203.775 73.9439C204.716 74.347 205.563 74.9419 206.261 75.6905C206.959 76.4391 207.494 77.3251 207.83 78.2918C208.167 79.2586 208.298 80.2849 208.216 81.3053L207.858 86.6091C207.682 88.7521 206.715 90.7529 205.145 92.2231C203.576 93.6932 201.517 94.5279 199.367 94.5649H159.99L151.716 99.2825L152.933 81.3053C153.109 79.1618 154.075 77.1603 155.645 75.6899C157.214 74.2195 159.274 73.3853 161.425 73.3495Z" fill="#393715"/>
<path opacity="0.5" d="M198.797 80.9479H162.307V82.2766H198.797V80.9479Z" fill="#393715"/>
<path opacity="0.5" d="M176.41 85.6432H161.989V86.9719H176.41V85.6432Z" fill="#393715"/>
<path opacity="0.5" d="M189.156 85.6432H179.944V86.9719H189.156V85.6432Z" fill="#393715"/>
</svg>
