<svg width="299" height="150" viewBox="0 0 299 150" fill="none" xmlns="http://www.w3.org/2000/svg">
<path d="M11.455 148.551C11.5199 147.411 -13.9224 110.561 12.6998 74.6972C39.322 38.8338 70.4524 58.1594 76.8386 32.9246C84.8222 1.37756 124.53 -7.49814 144.144 8.31716C170.118 29.2599 210.03 1.42876 246.328 15.3697C305.917 38.2568 263.686 83.2754 277.137 89.8108C290.587 96.3462 306.938 110.296 289.313 148.164L11.455 148.551Z" fill="#EBF3FA"/>
<path d="M131.291 44.877C127.087 38.6619 116.26 44.7651 116.26 44.7651C116.26 44.7651 112.519 59.4449 110.333 60.513C108.147 61.5811 111.08 47.3376 111.08 47.3376C106.509 48.4258 97.0921 57.7141 97.0921 57.7141C97.0921 57.7141 102.6 71.4571 100.218 71.9543C97.8366 72.4515 95.9623 59.5367 95.9623 59.5367C92.1206 62.2888 89.8363 68.654 89.8363 68.654C87.629 78.5017 100.388 80.8277 100.388 80.8277C100.388 80.8277 102.194 85.6316 101.105 92.2253L101.105 92.2255C101.105 92.2255 100.781 93.4851 100.692 95.4677L101.859 95.0676C101.847 94.7219 101.848 94.3833 101.865 94.053C101.864 94.0508 101.865 94.049 101.866 94.0469C101.866 94.0421 101.866 94.0374 101.866 94.0325C101.885 93.8248 101.912 93.5287 101.948 93.1669C101.948 93.1665 101.948 93.166 101.948 93.1655C101.948 93.1648 101.948 93.1645 101.948 93.1637C102.065 92.3434 102.13 91.745 102.154 91.3204C102.155 91.319 102.154 91.3178 102.154 91.3165C102.472 88.7587 103.033 85.3755 103.854 84.4247C103.854 84.4247 103.663 84.2872 103.421 83.9749C103.559 84.1183 103.703 84.2679 103.854 84.4247C107.32 88.0218 117.556 85.3112 122.731 82.2616C127.906 79.212 124.941 78.4735 121.071 76.9526C117.2 75.4317 111.15 78.2557 108.952 77.8925C106.754 77.5293 109.124 75.6008 112.933 74.6144C116.741 73.628 119.869 76.7031 126.059 75.2195C132.25 73.7359 132.952 60.8948 132.952 60.8948C129.254 63.598 121.049 63.858 120.274 62.5285C119.5 61.199 130.539 57.5751 132.105 56.5599C133.671 55.5449 135.494 51.0921 131.291 44.877Z" fill="#DFEBFD"/>
<path d="M246.463 141.796C250.526 137.424 243.856 130.128 243.856 130.128C243.856 130.128 231.809 129.86 230.59 128.357C229.37 126.855 240.934 126.575 240.934 126.575C239.271 123.228 230.386 117.595 230.386 117.595C230.386 117.595 220.723 124.326 219.911 122.57C219.099 120.813 228.771 117.046 228.771 117.046C225.95 114.562 220.608 113.933 220.608 113.933C212.581 113.987 213.065 124.292 213.065 124.292C213.065 124.292 209.666 126.552 204.361 126.89H204.361C204.361 126.89 203.326 126.864 201.774 127.151L202.293 127.984C202.559 127.912 202.822 127.853 203.081 127.807C203.082 127.806 203.084 127.805 203.086 127.806C203.089 127.805 203.093 127.805 203.097 127.804C203.261 127.781 203.495 127.749 203.782 127.712C203.782 127.712 203.783 127.712 203.783 127.712C203.784 127.711 203.784 127.712 203.785 127.711C204.441 127.655 204.917 127.598 205.25 127.541C205.251 127.541 205.252 127.541 205.253 127.54C207.292 127.328 210.014 127.156 210.898 127.622C210.898 127.622 210.971 127.449 211.169 127.206C211.083 127.339 210.993 127.477 210.898 127.622C208.732 130.953 212.667 138.399 215.958 141.863C219.249 145.327 219.29 142.897 219.775 139.625C220.26 136.353 216.987 132.171 216.874 130.402C216.762 128.634 218.681 130.124 220.128 132.899C221.575 135.674 219.752 138.649 222.012 143.18C224.271 147.711 234.348 145.954 234.348 145.954C231.59 143.573 229.918 137.261 230.81 136.422C231.701 135.584 236.488 143.489 237.555 144.521C238.623 145.552 242.4 146.167 246.463 141.796Z" fill="#DFEBFD"/>
<path d="M58.0709 60.5169C60.4733 55.9438 68.3471 59.2944 68.3471 59.2944C68.3471 59.2944 72.0262 69.0537 73.6032 69.6179C75.1803 70.1821 72.087 60.6597 72.087 60.6597C75.2979 61.0558 82.4494 66.6932 82.4494 66.6932C82.4494 66.6932 79.7288 76.5166 81.3962 76.6752C83.0636 76.8338 83.3614 67.8541 83.3614 67.8541C86.1998 69.4443 88.2482 73.6255 88.2482 73.6255C90.5093 80.1954 81.9563 82.7596 81.9563 82.7596C81.9563 82.7596 81.0869 86.1843 82.3351 90.6129L82.3352 90.613C82.3352 90.613 82.6531 91.4501 82.8651 92.7999L82.0358 92.6152C82.0176 92.3777 81.9908 92.1462 81.9542 91.9214C81.9545 91.9198 81.9542 91.9186 81.9534 91.9173C81.9529 91.914 81.9523 91.9109 81.9517 91.9075C81.9235 91.7667 81.8825 91.5662 81.8302 91.3214C81.8301 91.3211 81.83 91.3208 81.83 91.3205C81.8301 91.32 81.8296 91.3198 81.8297 91.3193C81.6869 90.7669 81.5973 90.3624 81.548 90.0738C81.5478 90.0728 81.5477 90.0719 81.5477 90.0711C81.1354 88.3452 80.4938 86.0731 79.8592 85.4851C79.8592 85.4851 79.9797 85.3765 80.1214 85.1443C80.0378 85.253 79.9506 85.3664 79.8592 85.4851C77.762 88.2106 70.5517 87.1364 66.7782 85.4443C63.0046 83.7522 64.9768 83.0209 67.5093 81.6851C70.0418 80.3494 74.3967 81.8204 75.8729 81.4042C77.3491 80.9882 75.5808 79.8492 72.8994 79.4647C70.2181 79.0801 68.3127 81.4227 63.9639 80.8794C59.6151 80.3362 58.1552 71.6035 58.1552 71.6035C60.8922 73.1711 66.526 72.7235 66.9547 71.7547C67.3834 70.786 59.5537 69.148 58.4047 68.5728C57.2557 67.9977 55.6685 65.09 58.0709 60.5169Z" fill="#CDE0FB"/>
<path opacity="0.5" d="M216.989 147.685L200.23 147.68L191.365 147.677C187.924 147.676 185.111 144.86 185.111 141.418L185.131 79.4886C185.131 76.0481 187.946 73.233 191.388 73.2348L199.25 73.2374L217.012 73.2423C220.453 73.2424 223.266 76.0586 223.266 79.5006L223.248 141.43C223.246 144.87 220.431 147.685 216.989 147.685Z" fill="#C0D8FB"/>
<path d="M220.544 130.127L220.099 126.868L219.654 123.607C219.541 122.776 219.097 122.066 218.474 121.592C217.851 121.119 217.048 120.881 216.216 120.994C216.124 121.007 216.034 121.025 215.945 121.045C216.25 120.604 216.423 120.107 216.47 119.602C217.036 120.958 218.523 121.752 219.996 121.399C221.63 121.008 222.647 119.353 222.256 117.718L221.49 114.519L220.725 111.319C220.529 110.503 220.017 109.84 219.35 109.43C218.683 109.021 217.861 108.864 217.044 109.059C215.409 109.45 214.393 111.107 214.784 112.74L215.938 117.561C215.763 117.31 215.548 117.081 215.293 116.885C214.766 116.482 214.148 116.281 213.529 116.264C213.832 115.873 214.031 115.417 214.119 114.941C214.233 114.318 214.153 113.662 213.868 113.068C214.213 111.924 213.868 110.628 212.894 109.823L207.822 105.631C206.527 104.56 204.593 104.744 203.522 106.039C202.532 107.237 202.617 108.98 203.66 110.082C203.391 110.081 203.118 110.113 202.846 110.187L199.672 111.056L196.499 111.924C195.395 112.226 194.597 113.106 194.341 114.149L194.007 113.351L192.739 110.316C192.092 108.765 190.295 108.027 188.744 108.675C187.194 109.322 186.456 111.119 187.103 112.67L188.371 115.705L189.184 117.651C188.107 118.08 187.317 119.104 187.255 120.333L187.089 123.618L186.922 126.905C186.88 127.742 187.185 128.523 187.71 129.104C188.235 129.684 188.979 130.066 189.818 130.109C190.177 130.127 190.523 130.078 190.849 129.98C190.533 130.614 190.445 131.347 190.606 132.044C190.043 132.369 189.578 132.871 189.312 133.514L188.055 136.555L186.798 139.596C186.478 140.371 186.504 141.209 186.804 141.932C187.104 142.655 187.678 143.264 188.454 143.585C189.666 144.086 191.022 143.739 191.865 142.827C192.064 143.297 192.382 143.724 192.814 144.056C194.148 145.077 196.074 144.821 197.096 143.487L199.095 140.875L201.095 138.261C201.367 137.907 201.545 137.509 201.64 137.098C202.335 137.168 203.057 137.004 203.675 136.578L204.199 136.217L203.473 137.165L201.474 139.777C200.452 141.111 200.708 143.037 202.042 144.058C203.377 145.08 205.302 144.824 206.324 143.489L208.323 140.877L210.323 138.264C210.349 138.23 210.37 138.195 210.395 138.161C210.556 138.421 210.754 138.652 210.98 138.849L210.268 139.78C209.247 141.114 209.503 143.04 210.837 144.061C212.171 145.082 214.097 144.826 215.118 143.492L219.118 138.267C219.628 137.601 219.819 136.785 219.716 136.009C219.613 135.233 219.216 134.496 218.549 133.985C218.321 133.811 218.075 133.676 217.82 133.575C217.857 133.572 217.894 133.571 217.931 133.566C219.596 133.339 220.771 131.792 220.544 130.127ZM193.022 127.213L193.079 126.092C193.272 126.418 193.526 126.714 193.844 126.957C193.963 127.048 194.089 127.126 194.216 127.197L192.817 128.161C192.933 127.865 193.006 127.547 193.022 127.213ZM213.602 124.433L214.2 128.817C213.941 128.29 213.54 127.857 213.055 127.56C212.465 127.197 211.753 127.034 211.03 127.136C211.342 126.946 211.627 126.699 211.861 126.392L213.578 124.149C213.582 124.243 213.589 124.338 213.602 124.433ZM206.656 112.591L207.426 113.228L206.634 113.774C206.717 113.393 206.728 112.993 206.656 112.591ZM207.32 122.276C207.242 121.801 207.054 121.359 206.779 120.98C207.006 120.895 207.228 120.784 207.436 120.64L209.843 118.98L207.32 122.276ZM209.318 127.991C208.673 127.452 207.835 127.206 207.015 127.296L207.08 126.474C207.226 126.651 207.391 126.816 207.58 126.961C208.256 127.478 209.084 127.667 209.87 127.554C209.667 127.678 209.483 127.826 209.318 127.991ZM203.165 116.432C202.494 117.443 202.46 118.804 203.188 119.86C203.201 119.879 203.217 119.896 203.23 119.915C203.008 120 202.798 120.109 202.603 120.241C202.741 119.806 202.782 119.349 202.723 118.905C202.62 118.129 202.224 117.392 201.556 116.881C201.553 116.879 201.55 116.877 201.547 116.875L203.165 116.432ZM200.125 123.776L201.303 122.237C201.286 122.332 201.273 122.428 201.265 122.526L201.042 125.351C200.601 124.953 200.06 124.699 199.491 124.605L200.125 123.776ZM194.611 136.684L194.956 135.848C195.209 135.237 195.244 134.59 195.103 133.99C195.173 133.95 195.242 133.909 195.31 133.862L200.727 130.126C200.762 130.102 200.793 130.075 200.827 130.05C200.9 130.347 201.017 130.627 201.171 130.885L200.207 131.55C199.558 131.998 199.139 132.657 198.973 133.372C197.955 133.274 196.908 133.682 196.245 134.549L194.611 136.684ZM208.98 132.919L209.149 133.626C208.877 133.503 208.592 133.424 208.303 133.386L208.98 132.919ZM215.431 133.632L215.196 132.648L215.151 132.461C215.482 132.867 215.912 133.184 216.399 133.378C216.066 133.41 215.739 133.494 215.431 133.632ZM196.932 117.898L195.275 120.063L193.275 122.675C193.266 122.687 193.259 122.7 193.25 122.712L193.355 120.641C193.357 120.588 193.355 120.536 193.355 120.483C193.449 120.454 193.542 120.421 193.635 120.383C194.878 119.863 195.597 118.603 195.5 117.326C195.918 117.632 196.411 117.833 196.932 117.898Z" fill="#AFCDFB"/>
<path opacity="0.5" d="M200.23 147.68L191.365 147.677C187.924 147.676 185.111 144.86 185.111 141.418L185.131 79.4886C185.131 76.0481 187.946 73.233 191.388 73.2348L199.25 73.2374C199.898 74.3503 200.277 75.6807 200.276 77.1058L200.255 147.055C200.255 147.266 200.247 147.474 200.23 147.68Z" fill="#AFCDFB"/>
<path d="M222.855 76.1621L199.052 76.1548L185.543 76.1498C184.873 76.1508 184.327 75.6025 184.327 74.9328L184.329 69.1009C184.329 68.4326 184.876 67.8847 185.546 67.8851L199.036 67.889C199.038 67.8892 199.038 67.8892 199.039 67.8894L222.858 67.896C223.526 67.8962 224.074 68.4432 224.074 69.113L224.072 74.9449C224.072 75.6146 223.525 76.1625 222.855 76.1621Z" fill="#F99746"/>
<path d="M199.052 76.1548L185.543 76.1498C184.873 76.1508 184.327 75.6025 184.327 74.9328L184.329 69.1009C184.329 68.4326 184.876 67.8847 185.546 67.8851L199.036 67.889C199.038 67.8892 199.038 67.8892 199.039 67.8894C199.706 67.8909 200.252 68.4377 200.252 69.106L200.25 74.9379C200.249 75.6017 199.713 76.1451 199.052 76.1548Z" fill="#EF7E29"/>
<path d="M107.943 70.4365V110.663C107.943 113.131 105.924 115.152 103.455 115.152H79.5447C78.9051 115.152 78.2959 115.016 77.7431 114.772C76.1649 114.074 75.056 112.492 75.056 110.663V70.4365C75.056 67.9671 77.0764 65.9478 79.5447 65.9478H103.455C105.924 65.9478 107.943 67.9671 107.943 70.4365Z" fill="#FCECDB"/>
<path d="M97.3518 81.0749C94.8246 80.126 93.5467 77.3091 94.4952 74.7832C95.4436 72.2574 98.2597 70.9777 100.787 71.9265C103.313 72.8749 104.592 75.6923 103.644 78.2182C102.695 80.7441 99.8776 82.0233 97.3518 81.0749Z" fill="#F7E0CB"/>
<path d="M103.644 78.2183L94.4952 74.7832C95.4436 72.2574 98.2597 70.9777 100.787 71.9265C103.313 72.875 104.592 75.6924 103.644 78.2183Z" fill="#EFCBAB"/>
<path d="M80.8402 80.2856C78.7491 78.5786 78.4389 75.5009 80.1451 73.4108C81.8513 71.3208 84.9287 71.0087 87.0198 72.7157C89.1098 74.4219 89.4211 77.5005 87.7149 79.5905C86.0088 81.6807 82.9303 81.9919 80.8402 80.2856Z" fill="#F7E0CB"/>
<path d="M87.715 79.5905L80.1451 73.4108C81.8513 71.3208 84.9287 71.0087 87.0198 72.7157C89.11 74.4219 89.4212 77.5005 87.715 79.5905Z" fill="#EFCBAB"/>
<path d="M97.3518 110.88C94.8246 109.931 93.5467 107.115 94.4952 104.589C95.4436 102.063 98.2597 100.783 100.787 101.732C103.313 102.68 104.592 105.498 103.644 108.024C102.695 110.549 99.8776 111.829 97.3518 110.88Z" fill="#F7E0CB"/>
<path d="M103.644 108.356L94.4952 104.921C95.4436 102.395 98.2597 101.115 100.787 102.064C103.313 103.012 104.592 105.83 103.644 108.356Z" fill="#EFCBAB"/>
<path d="M80.8402 110.091C78.7491 108.384 78.4389 105.306 80.1451 103.216C81.8513 101.126 84.9287 100.814 87.0198 102.521C89.1098 104.227 89.4211 107.306 87.7149 109.396C86.0088 111.486 82.9303 111.797 80.8402 110.091Z" fill="#F7E0CB"/>
<path d="M87.715 109.728L80.1451 103.548C81.8513 101.458 84.9287 101.146 87.0198 102.853C89.11 104.559 89.4212 107.638 87.715 109.728Z" fill="#EFCBAB"/>
<path d="M101.162 96.3734C98.7224 97.5295 95.8096 96.4887 94.6541 94.0506C93.4986 91.6125 94.5374 88.6989 96.9768 87.5429C99.4149 86.3874 102.329 87.4275 103.485 89.8656C104.64 92.3037 103.6 95.218 101.162 96.3734Z" fill="#F7E0CB"/>
<path d="M103.485 89.8656L94.6541 94.0507C93.4986 91.6126 94.5374 88.699 96.9768 87.543C99.4149 86.3875 102.329 87.4275 103.485 89.8656Z" fill="#EFCBAB"/>
<path d="M79.394 90.1426C80.3971 87.6364 83.2409 86.4196 85.7457 87.4221C88.2505 88.4246 89.4693 91.2676 88.4663 93.7738C87.4638 96.2787 84.6195 97.4969 82.1146 96.4944C79.6098 95.4918 78.3915 92.6475 79.394 90.1426Z" fill="#F7E0CB"/>
<path d="M82.1145 96.4944L85.7456 87.4221C88.2504 88.4246 89.4692 91.2676 88.4662 93.7738C87.4637 96.2787 84.6194 97.497 82.1145 96.4944Z" fill="#EFCBAB"/>
<path opacity="0.5" d="M107.943 75.9416V110.947C107.943 113.259 106.096 115.152 103.836 115.152H81.9573C81.372 115.152 80.8146 115.025 80.3088 114.796V80.7874C80.3088 79.3966 80.8889 78.1378 81.8138 77.2521C82.1555 76.9245 82.5446 76.6476 82.9699 76.434C83.5965 76.1191 84.2994 75.9415 85.0416 75.9415H107.943V75.9416Z" fill="#EFCBAB"/>
<path d="M81.0897 120.883V80.6563C81.0897 78.1875 83.1096 76.1675 85.5784 76.1675H109.488C111.957 76.1675 113.977 78.1874 113.977 80.6563V120.883C113.977 123.352 111.957 125.372 109.488 125.372H85.5784C83.1097 125.372 81.0897 123.352 81.0897 120.883Z" fill="#FCECDB"/>
<path d="M103.386 91.295C100.858 90.3461 99.5804 87.5292 100.529 85.0033C101.477 82.4775 104.293 81.1978 106.821 82.1467C109.346 83.0951 110.626 85.9126 109.677 88.4384C108.729 90.9643 105.911 92.2435 103.386 91.295Z" fill="#F7E0CB"/>
<path d="M109.677 88.4384L100.529 85.0033C101.477 82.4775 104.293 81.1978 106.821 82.1467C109.346 83.0951 110.626 85.9126 109.677 88.4384Z" fill="#EFCBAB"/>
<path d="M86.874 90.506C84.7828 88.7989 84.4727 85.7212 86.1789 83.6312C87.8851 81.5412 90.9626 81.229 93.0537 82.9361C95.1437 84.6424 95.455 87.7209 93.7488 89.8109C92.0426 91.9009 88.964 92.2121 86.874 90.506Z" fill="#F7E0CB"/>
<path d="M93.7487 89.8107L86.1788 83.631C87.885 81.541 90.9625 81.2288 93.0536 82.9359C95.1437 84.6422 95.4549 87.7207 93.7487 89.8107Z" fill="#EFCBAB"/>
<path d="M103.386 121.101C100.858 120.152 99.5804 117.335 100.529 114.809C101.477 112.283 104.293 111.003 106.821 111.952C109.346 112.901 110.626 115.718 109.677 118.244C108.729 120.77 105.911 122.049 103.386 121.101Z" fill="#F7E0CB"/>
<path d="M109.677 118.576L100.529 115.141C101.477 112.615 104.293 111.335 106.821 112.284C109.346 113.233 110.626 116.05 109.677 118.576Z" fill="#EFCBAB"/>
<path d="M86.874 120.311C84.7828 118.604 84.4727 115.526 86.1789 113.436C87.8851 111.346 90.9626 111.034 93.0537 112.741C95.1437 114.448 95.455 117.526 93.7488 119.616C92.0426 121.706 88.964 122.018 86.874 120.311Z" fill="#F7E0CB"/>
<path d="M93.7487 119.948L86.1788 113.768C87.885 111.678 90.9625 111.366 93.0536 113.073C95.1437 114.78 95.4549 117.858 93.7487 119.948Z" fill="#EFCBAB"/>
<path d="M107.196 106.594C104.756 107.75 101.843 106.709 100.688 104.271C99.5324 101.833 100.571 98.9193 103.011 97.7633C105.449 96.6078 108.363 97.648 109.518 100.086C110.674 102.524 109.634 105.438 107.196 106.594Z" fill="#F7E0CB"/>
<path d="M109.518 100.086L100.688 104.271C99.5324 101.833 100.571 98.9193 103.011 97.7633C105.449 96.6078 108.363 97.648 109.518 100.086Z" fill="#EFCBAB"/>
<path d="M85.4277 100.363C86.4308 97.8566 89.2746 96.6398 91.7794 97.6423C94.2842 98.6448 95.503 101.488 94.5 103.994C93.4975 106.499 90.6532 107.717 88.1483 106.715C85.6435 105.712 84.4252 102.868 85.4277 100.363Z" fill="#F7E0CB"/>
<path d="M88.1483 106.715L91.7794 97.6423C94.2842 98.6448 95.503 101.488 94.5 103.994C93.4975 106.499 90.6532 107.717 88.1483 106.715Z" fill="#EFCBAB"/>
<path d="M110.276 92.2134H72.7232V148.257H110.276V92.2134Z" fill="#EF7E29"/>
<path d="M115.507 92.2131H77.9541V148.257H115.507V92.2131Z" fill="#F99746"/>
<path d="M77.9541 95.4654L76.1544 98.2643H72.7232V92.2134H77.9538L77.9541 95.4654Z" fill="#D8661A"/>
<path d="M74.746 96.6284H69.5155L72.7232 92.2133H77.9538L74.746 96.6284Z" fill="#F99746"/>
<path opacity="0.5" d="M97.3225 148.435H77.9541V94.7672L97.3225 96.6285V148.435Z" fill="#EFCBAB"/>
<path d="M115.507 96.6285L112.46 98.2643H79.7644L77.9541 95.4654V92.2131L115.507 96.6285Z" fill="#EF7E29"/>
<path d="M118.16 96.6285H80.6066L77.9538 92.2134H115.507L118.16 96.6285Z" fill="#F99746"/>
<path d="M238.158 90.2703C238.158 90.2703 238.14 90.111 237.959 89.8963C237.846 89.6677 237.726 89.3903 237.721 89.2343C237.711 88.9371 237.378 88.821 237.242 89.0683C237.197 89.1508 237.174 89.2444 237.171 89.3444C236.639 89.1021 235.821 88.8844 234.562 88.7988C234.562 88.7988 233.593 88.6918 234.221 89.5134C234.641 90.0627 235.005 90.066 235.609 90.8309C236.214 91.5958 237.122 92.0176 237.813 91.8163L238.62 91.9127L239.144 90.6257L238.158 90.2703Z" fill="#F9C29D"/>
<path d="M264.168 81.7482C264.168 81.7482 263.373 90.5002 252.049 94.1956C248.992 95.1933 237.557 92.1294 237.557 92.1294C237.557 92.1294 237.622 90.6234 238.55 90.2453C238.55 90.2453 249.263 89.5874 250.165 90.0295C250.965 90.4217 257.805 83.3789 260.015 82.2445C262.225 81.1101 264.168 81.7482 264.168 81.7482Z" fill="#91CECF"/>
<path d="M278.145 141.977C278.145 141.977 279.5 143.214 279.235 144.092C278.971 144.971 277.748 145.557 277.582 146.632C277.417 147.706 276.756 148.292 276.161 148.292C275.566 148.292 273.324 148.292 273.324 148.292C273.324 148.292 272.886 147.536 273.944 147.308C275.002 147.08 275.401 145.818 275.334 144.646C275.268 143.474 275.434 141.912 275.434 141.912L277.682 141.391L278.145 141.977Z" fill="#233862"/>
<path d="M278.145 141.201C277.897 141.934 275.169 143.008 275.169 143.008C275.169 143.008 273.682 140.664 268.921 132.265C268.511 131.541 268.082 130.748 267.642 129.902C262.967 120.921 256.92 105.996 256.92 105.996L268.475 102.774C268.475 102.774 269.02 107.412 269.119 109.756C269.18 111.188 269.994 114.248 271.029 116.921C271.688 118.622 272.436 120.166 273.136 121.035C276.324 124.988 278.145 141.201 278.145 141.201Z" fill="#2B478B"/>
<path d="M271.029 116.922C270.303 120.605 268.97 126.774 267.642 129.902C262.967 120.921 256.92 105.996 256.92 105.996L268.475 102.774C268.475 102.774 269.02 107.412 269.119 109.756C269.18 111.188 269.994 114.248 271.029 116.922Z" fill="#233862"/>
<path d="M261.516 145.176C261.516 145.176 261.759 147.991 261.164 148.284L253.548 148.268C253.548 148.268 253.548 147.39 254.771 147.194C255.995 146.999 258.144 146.283 258.507 144.688C258.871 143.093 261.516 145.176 261.516 145.176Z" fill="#233862"/>
<path d="M255.086 105.41C255.086 105.41 255.488 110.345 255.96 116.276C256.601 124.334 257.373 134.231 257.449 136.106C257.581 139.362 258.111 144.57 258.111 144.57C258.111 144.57 259.366 145.808 261.88 145.286C261.88 145.286 264.119 137.851 264.759 129.985C264.769 129.856 264.779 129.726 264.789 129.597C265.384 121.589 266.309 104.726 266.309 104.726L255.086 105.41Z" fill="#2B478B"/>
<path d="M265.598 78.7053C265.598 78.7053 258.519 80.8626 259.352 79.8044C259.243 79.1727 258.928 77.4774 258.879 77.0126C258.746 75.9397 258.746 75.3317 258.746 75.3317L260.852 73.6749L262.85 72.0894C262.693 76.5477 265.598 78.7053 265.598 78.7053Z" fill="#FFB27D"/>
<path d="M271.995 114.748C266.251 118.626 254.644 117.518 254.557 117.444C254.364 114.976 254.254 110.905 254.193 107.138C254.119 102.459 254.118 98.2482 254.123 98.1592C254.123 98.1592 254.127 98.0173 254.133 97.7779C254.152 97.0174 254.198 95.274 254.248 93.9752C254.257 93.732 254.266 93.506 254.276 93.3035C254.277 93.2922 254.277 93.2817 254.278 93.2704C254.314 92.6877 254.67 91.1278 255.172 89.3106C255.908 86.6467 256.955 83.4324 257.758 81.9377C258.17 81.1705 259.555 78.9504 259.555 78.9504C260.533 79.1434 261.238 78.8549 262.27 78.3516C263.4 77.8068 264.616 77.2184 264.812 77.3678C266.29 78.4481 267.289 80.8754 267.821 83.9773C268.125 85.7633 272.278 114.556 271.995 114.748Z" fill="#ABDDDA"/>
<path d="M262.886 73.794C262.886 73.794 261.506 76.3091 258.879 77.0125C258.746 75.9396 258.746 75.3316 258.746 75.3316L260.852 73.6748L262.886 73.794Z" fill="#ED985F"/>
<path d="M257.786 75.2591C257.786 75.2591 262.994 76.1111 263.483 72.9091C263.972 69.7071 264.973 67.6606 261.669 66.9812C258.364 66.3019 257.53 67.4278 257.102 68.4575C256.675 69.4871 256.443 74.9549 257.786 75.2591Z" fill="#FFB27D"/>
<path d="M265.376 66.5979C265.423 66.5437 265.532 66.5 265.775 66.4867C265.775 66.4867 265.581 66.3654 265.322 66.359C265.271 66.0215 265.091 65.4242 264.511 65.279C264.511 65.279 264.823 65.4454 264.864 65.8042C264.191 65.1133 262.749 64.6104 258.757 64.9255C253.497 65.3407 255.231 68.7089 255.912 69.1105C256.593 69.512 258.307 68.4112 259.576 68.5119C260.845 68.6126 261.086 70.4462 261.517 70.6978C261.947 70.9494 261.778 70.5045 262.36 70.2412C262.943 69.9779 262.998 70.943 262.83 71.5706C262.662 72.1981 263.462 73.0258 263.462 73.0258C263.462 73.0258 263.462 73.0258 264.271 72.1549C265.079 71.284 265.841 67.595 265.474 66.8086C265.441 66.7389 265.409 66.6685 265.376 66.5979Z" fill="#2C3A64"/>
<path d="M254.194 107.138C254.119 102.459 254.118 98.2483 254.124 98.1593C254.124 98.1593 254.127 98.0174 254.133 97.778C258.637 92.2044 264.438 86.416 264.438 86.416C264.438 86.416 265.695 102.765 254.194 107.138Z" fill="#91CECF"/>
<path d="M260.303 85.4644C260.242 85.5647 258.815 93.9848 255.155 94.0785C254.799 94.0879 254.499 94.0511 254.247 93.9754C254.256 93.7322 254.265 93.5062 254.275 93.3037C254.275 93.2924 254.275 93.2819 254.276 93.2706C254.312 92.6879 254.669 91.128 255.171 89.3108C256.668 89.0032 258.42 87.6307 260.303 85.4644Z" fill="#91CECF"/>
<path d="M264.824 77.3679C264.824 77.3679 264.39 76.1059 264.036 75.9636C264.036 75.9636 259.118 77.0983 257.478 82.5336C257.478 82.5336 259.392 79.1983 264.824 77.3679Z" fill="#6BB7BF"/>
<path d="M254.991 118.052L245.198 119.414L240.018 120.134C238.007 120.414 236.134 118.997 235.854 116.986L230.821 80.7993C230.541 78.7889 231.957 76.9148 233.968 76.6355L238.562 75.9966L248.941 74.5527C250.951 74.2725 252.825 75.6889 253.105 77.7001L258.138 113.887C258.418 115.897 257.002 117.772 254.991 118.052Z" fill="#F0B371"/>
<path d="M255.638 107.503L255.113 105.635L254.587 103.766C254.453 103.29 254.136 102.911 253.733 102.685C253.33 102.459 252.842 102.385 252.365 102.519C252.312 102.534 252.261 102.552 252.211 102.571C252.353 102.289 252.414 101.984 252.4 101.685C252.841 102.432 253.775 102.774 254.607 102.448C255.53 102.087 255.989 101.036 255.627 100.113L254.919 98.3063L254.211 96.4986C254.031 96.0379 253.677 95.6922 253.254 95.5072C252.831 95.3222 252.338 95.2974 251.877 95.4782C250.954 95.8398 250.495 96.8907 250.856 97.8131L251.923 100.536C251.8 100.403 251.656 100.287 251.491 100.194C251.151 100.001 250.773 99.9341 250.41 99.9744C250.555 99.7211 250.635 99.4387 250.647 99.1533C250.663 98.7803 250.563 98.4033 250.348 98.0791C250.456 97.3826 250.149 96.6537 249.514 96.2626L246.209 94.2262C245.365 93.7063 244.25 93.9711 243.73 94.8151C243.249 95.5958 243.441 96.6073 244.14 97.1664C243.982 97.1876 243.825 97.2283 243.673 97.2938L241.889 98.0597L240.106 98.8254C239.485 99.0919 239.091 99.6712 239.026 100.301L238.766 99.8623L237.778 98.192C237.273 97.3388 236.163 97.0539 235.31 97.5586C234.456 98.0633 234.172 99.1734 234.676 100.027L235.664 101.697L236.298 102.767C235.704 103.106 235.325 103.769 235.389 104.492L235.559 106.425L235.73 108.359C235.774 108.852 236.015 109.283 236.369 109.58C236.723 109.876 237.189 110.039 237.683 109.995C237.894 109.977 238.092 109.92 238.275 109.836C238.142 110.233 238.15 110.668 238.301 111.062C237.999 111.297 237.768 111.629 237.665 112.026L237.178 113.905L236.691 115.785C236.567 116.264 236.651 116.751 236.885 117.149C237.119 117.547 237.504 117.856 237.984 117.98C238.732 118.174 239.497 117.861 239.915 117.26C240.07 117.518 240.29 117.742 240.57 117.9C241.433 118.389 242.537 118.082 243.025 117.219L243.981 115.53L244.937 113.84C245.066 113.611 245.138 113.364 245.16 113.116C245.572 113.101 245.981 112.946 246.307 112.647L246.583 112.393L246.237 113.006L245.281 114.695C244.793 115.558 245.099 116.662 245.962 117.15C246.825 117.639 247.929 117.332 248.418 116.469L249.373 114.78L250.329 113.09C250.341 113.069 250.351 113.046 250.362 113.024C250.478 113.163 250.612 113.282 250.76 113.379L250.42 113.98C249.932 114.843 250.238 115.948 251.101 116.436C251.964 116.924 253.068 116.617 253.557 115.755L255.468 112.376C255.712 111.945 255.757 111.453 255.634 111.008C255.51 110.563 255.218 110.164 254.787 109.92C254.639 109.837 254.485 109.778 254.327 109.74C254.349 109.735 254.37 109.732 254.391 109.726C255.345 109.457 255.906 108.458 255.638 107.503ZM239.32 108.042L239.261 107.383C239.401 107.557 239.573 107.709 239.779 107.825C239.856 107.869 239.935 107.904 240.016 107.935L239.277 108.613C239.32 108.43 239.337 108.239 239.32 108.042ZM251.118 104.741L251.825 107.254C251.63 106.967 251.361 106.747 251.053 106.613C250.678 106.449 250.249 106.412 249.835 106.531C250.002 106.394 250.148 106.226 250.26 106.028L251.081 104.578C251.091 104.632 251.103 104.687 251.118 104.741ZM246.095 98.3881L246.596 98.6971L246.178 99.0808C246.196 98.8515 246.17 98.6166 246.095 98.3881ZM247.272 103.993C247.187 103.722 247.041 103.478 246.85 103.279C246.976 103.211 247.096 103.128 247.206 103.027L248.477 101.861L247.272 103.993ZM248.904 107.169C248.483 106.907 247.974 106.831 247.502 106.951L247.473 106.465C247.573 106.557 247.683 106.64 247.805 106.709C248.242 106.956 248.741 106.999 249.191 106.869C249.083 106.958 248.988 107.06 248.904 107.169ZM244.368 100.917C244.058 101.562 244.149 102.36 244.661 102.918C244.67 102.928 244.68 102.936 244.69 102.946C244.567 103.014 244.453 103.095 244.35 103.188C244.395 102.922 244.382 102.652 244.311 102.397C244.188 101.952 243.896 101.554 243.465 101.31C243.463 101.309 243.461 101.308 243.459 101.307L244.368 100.917ZM243.19 105.455L243.753 104.46C243.75 104.517 243.751 104.574 243.754 104.632L243.854 106.301C243.563 106.104 243.227 106 242.886 105.991L243.19 105.455ZM241.019 113.447L241.153 112.93C241.251 112.553 241.218 112.172 241.087 111.832C241.125 111.803 241.162 111.773 241.198 111.741L244.059 109.117C244.077 109.1 244.093 109.081 244.111 109.064C244.178 109.231 244.269 109.386 244.38 109.524L243.871 109.991C243.528 110.306 243.337 110.725 243.298 111.156C242.695 111.182 242.117 111.505 241.8 112.066L241.019 113.447ZM249.109 110.076L249.265 110.475C249.096 110.426 248.923 110.403 248.751 110.404L249.109 110.076ZM252.936 109.968L252.718 109.412L252.677 109.306C252.903 109.516 253.18 109.667 253.481 109.74C253.289 109.786 253.104 109.862 252.936 109.968ZM240.845 102.281L240.053 103.681L239.098 105.37C239.093 105.378 239.09 105.386 239.086 105.394L238.978 104.175C238.976 104.144 238.97 104.113 238.966 104.083C239.018 104.058 239.07 104.031 239.121 104.001C239.805 103.596 240.123 102.802 239.962 102.063C240.231 102.208 240.535 102.285 240.845 102.281Z" fill="#EB9342"/>
<path d="M252.593 75.7828L238.684 77.7173L230.79 78.8148C230.399 78.87 230.035 78.5941 229.981 78.2027L229.507 74.7949C229.452 74.4044 229.727 74.0397 230.119 73.9854L238.002 72.8889C238.002 72.8889 238.002 72.8889 238.003 72.8889L251.921 70.9527C252.312 70.8984 252.677 71.1734 252.731 71.5648L253.205 74.9726C253.259 75.3639 252.984 75.7285 252.593 75.7828Z" fill="#ABDDDA"/>
<path d="M243.249 96.9251C243.249 96.9251 243.188 96.7769 242.955 96.6204C242.783 96.4316 242.591 96.1981 242.543 96.0495C242.452 95.7666 242.1 95.7467 242.038 96.0218C242.017 96.1136 242.02 96.2099 242.045 96.307C241.467 96.2206 240.621 96.2364 239.387 96.5008C239.387 96.5008 238.425 96.6649 239.256 97.2819C239.811 97.6942 240.161 97.5975 240.953 98.1663C241.745 98.7351 242.734 98.8905 243.342 98.5067L244.145 98.377L244.295 96.9952L243.249 96.9251Z" fill="#F9C29D"/>
<path d="M265.906 81.57C265.906 81.57 267.552 90.2026 257.684 96.8734C255.019 98.6744 243.183 98.878 243.183 98.878C243.183 98.878 242.83 97.4124 243.619 96.7932C243.619 96.7932 253.736 93.2107 254.725 93.3873C255.602 93.544 260.238 84.8899 262.051 83.1906C263.863 81.4915 265.906 81.57 265.906 81.57Z" fill="#ABDDDA"/>
<path d="M52.8435 95.8885C52.0996 93.4997 48.8647 93.0519 47.5631 95.1886C47.329 95.5728 47.1809 96.0145 47.168 96.5201C47.0963 99.3208 52.6198 110.161 53.353 111.12C54.6878 112.866 62.7444 117.064 62.7444 117.064L64.4565 116.815C64.4565 116.815 63.4885 116.207 62.4863 115.206C60.4162 113.139 57.3986 109.78 56.8457 109.314C55.897 108.516 54.2559 100.424 52.8435 95.8885Z" fill="#ED985F"/>
<path d="M100.784 148.086H63.9699C61.7105 148.086 59.862 146.238 59.862 143.978V122.097C59.862 119.837 61.7105 117.989 63.9699 117.989H100.784C103.043 117.989 104.892 119.837 104.892 122.097V143.978C104.892 146.238 103.043 148.086 100.784 148.086Z" fill="#FCECDB"/>
<path d="M73.706 127.682C72.8377 129.995 70.2597 131.164 67.9481 130.296C65.6365 129.428 64.4654 126.851 65.3338 124.538C66.2018 122.227 68.7802 121.056 71.0917 121.924C73.4034 122.792 74.574 125.37 73.706 127.682Z" fill="#F7E0CB"/>
<path d="M71.0917 121.924L67.9481 130.296C65.6365 129.428 64.4654 126.851 65.3338 124.538C66.2018 122.227 68.7802 121.056 71.0917 121.924Z" fill="#EFCBAB"/>
<path d="M72.9838 142.793C71.4215 144.707 68.605 144.99 66.6922 143.429C64.7794 141.867 64.4938 139.051 66.0561 137.137C67.6176 135.225 70.435 134.94 72.3477 136.501C74.2604 138.063 74.5453 140.88 72.9838 142.793Z" fill="#F7E0CB"/>
<path d="M72.3477 136.501L66.6923 143.429C64.7795 141.867 64.4939 139.051 66.0562 137.137C67.6176 135.225 70.435 134.94 72.3477 136.501Z" fill="#EFCBAB"/>
<path d="M100.983 127.682C100.115 129.995 97.5366 131.164 95.225 130.296C92.9135 129.428 91.7423 126.851 92.6107 124.538C93.4787 122.227 96.0571 121.056 98.3687 121.924C100.68 122.792 101.851 125.37 100.983 127.682Z" fill="#F7E0CB"/>
<path d="M98.3698 121.924L95.2261 130.296C92.9145 129.428 91.7434 126.851 92.6118 124.538C93.4798 122.227 96.0582 121.056 98.3698 121.924Z" fill="#EFCBAB"/>
<path d="M100.26 142.793C98.7521 144.641 96.0741 144.969 94.1693 143.581C94.1011 143.534 94.0351 143.482 93.969 143.429C92.056 141.868 91.771 139.051 93.333 137.137C94.894 135.224 97.7114 134.939 99.6244 136.501C99.6894 136.555 99.7524 136.609 99.8144 136.666C101.555 138.253 101.769 140.945 100.26 142.793Z" fill="#F7E0CB"/>
<path d="M99.8145 136.665L94.1694 143.581C94.1012 143.534 94.0352 143.482 93.9691 143.429C92.0561 141.868 91.7711 139.051 93.3331 137.137C94.8941 135.224 97.7115 134.939 99.6245 136.501C99.6896 136.555 99.7525 136.609 99.8145 136.665Z" fill="#EFCBAB"/>
<path d="M87.7068 124.195C88.7648 126.427 87.8124 129.093 85.5811 130.151C83.3499 131.208 80.6835 130.258 79.6254 128.025C78.5679 125.794 79.5198 123.127 81.7511 122.069C83.9824 121.012 86.6494 121.964 87.7068 124.195Z" fill="#F7E0CB"/>
<path d="M81.7512 122.069L85.5812 130.151C83.35 131.208 80.6836 130.257 79.6255 128.025C78.568 125.794 79.5199 123.127 81.7512 122.069Z" fill="#EFCBAB"/>
<path d="M82.0046 144.116C79.711 143.198 78.5973 140.596 79.5148 138.303C80.4323 136.011 83.0341 134.896 85.3277 135.814C87.62 136.731 88.735 139.334 87.8175 141.627C86.9 143.919 84.297 145.034 82.0046 144.116Z" fill="#F7E0CB"/>
<path d="M87.8175 141.627L79.5149 138.304C80.4324 136.011 83.0342 134.896 85.3278 135.814C87.6201 136.731 88.735 139.334 87.8175 141.627Z" fill="#EFCBAB"/>
<path d="M55.1819 82.186C55.2266 82.0062 51.2738 83.9725 51.0733 84.1949C49.2194 86.2512 49.7481 88.9348 50.8088 88.9606C51.4891 88.9771 51.3573 90.1082 51.3573 90.1082L58.9364 86.902C58.9364 86.902 58.0238 81.5807 55.1819 82.186Z" fill="#2B478B"/>
<path d="M56.1151 82.6012C56.1151 82.6012 56.3859 79.6487 53.0871 79.6487C53.0871 79.6487 54.0867 79.9199 54.6038 80.4622C54.6038 80.4622 52.4997 79.2269 50.21 81.125C47.9203 83.0231 49.343 87.7833 48.6467 88.6871C47.9504 89.5909 45.2389 89.7717 45.5703 92.694C45.9017 95.6165 54.1759 99.2767 53.6445 101.695C53.6445 101.695 56.887 96.9281 54.5684 94.7528C54.5684 94.7528 55.6985 95.8173 55.8137 97.0827C55.8137 97.0827 56.1204 94.6122 54.5483 93.8221C53.1571 93.1228 52.0176 90.5654 52.1381 90.1083C52.2587 89.6511 56.1151 82.6012 56.1151 82.6012Z" fill="#2B478B"/>
<path d="M46.849 146.442L45.2089 146.201C45.2089 146.201 39.6943 141.819 38.873 133.641C38.7893 132.809 38.159 129.883 37.5643 128.919C36.978 127.969 35.9748 126.174 34.8709 124.159C32.8825 120.53 30.5674 116.191 29.7733 114.808C27.2432 110.403 28.4628 107.441 28.4628 107.441C28.4628 107.441 35.5211 106.743 37.4553 105.051L38.1518 106.125C38.1518 106.125 39.6811 112.895 39.6088 112.927C39.6841 113.157 39.7606 113.391 39.8383 113.63C41.0452 117.355 42.4335 122.011 43.1903 125.803C43.6157 127.936 43.729 132.164 43.8447 132.988C44.528 137.847 46.849 146.442 46.849 146.442Z" fill="#2B478B"/>
<path d="M50.2894 148.517H43.4468C43.4468 148.517 43.2828 147.474 43.6402 146.683C43.9827 145.924 44.4708 145.9 43.7026 144.71C44.1374 145.157 45.5351 145.342 46.5243 145.209C46.6455 145.406 47.3057 146.724 47.7106 147.015C48.1577 147.336 50.1517 147.222 50.2894 148.517Z" fill="#233862"/>
<path d="M34.8708 124.159C32.8824 120.53 30.5673 116.191 29.7732 114.808C27.2431 110.403 28.4627 107.441 28.4627 107.441C28.4627 107.441 31.884 106.312 33.8182 104.62C33.8182 104.62 35.3988 118.393 34.8708 124.159Z" fill="#233862"/>
<path d="M35.0393 107.95L35.0625 106.67C32.5127 106.992 26.2707 103.623 26.2707 103.623C26.2707 103.623 23.6031 105.397 23.238 110.464C23.0597 112.937 21.9321 123.396 21.8074 126.52C21.7619 127.651 20.6483 130.43 20.252 131.166C16.3612 138.406 18.3959 148.242 18.3959 148.242L19.2994 148.012C19.2994 148.012 22.5893 137.815 24.7394 133.405C25.1043 132.656 27.3742 129.088 28.2144 127.081C29.8027 123.287 31.3448 118.281 32.4446 114.404C32.5222 114.418 35.0393 107.95 35.0393 107.95Z" fill="#2B478B"/>
<path d="M49.9607 99.4086C45.7923 98.452 48.4554 92.5945 48.6969 92.6976C49.2744 92.5799 50.5429 91.5659 51.6776 89.5853L51.8309 89.7183L54.3911 91.9628C54.3911 91.9628 53.7993 92.8358 53.3014 93.6909C52.9124 94.3603 52.5817 95.0199 52.6343 95.2463C52.8403 95.4084 51.0725 99.6641 49.9607 99.4086Z" fill="#FFB27D"/>
<path d="M52.5926 95.0576C52.5926 95.0576 53.3255 96.5039 53.7165 97.7566C54.1075 99.0094 55.0858 102.994 55.0858 102.994C55.0858 102.994 53.0681 105.296 50.2612 105.162C50.2612 105.162 48.752 102.8 49.2838 100.666C49.8157 98.5327 52.5926 95.0576 52.5926 95.0576Z" fill="#91CECF"/>
<path d="M54.391 91.9635C54.391 91.9635 53.799 92.8355 53.3013 93.6915C51.7096 92.7102 51.7079 90.7396 51.8305 89.7188L54.391 91.9635Z" fill="#ED985F"/>
<path d="M54.462 93.0877C54.462 93.0877 50.5972 90.9371 51.9735 88.5509C53.3498 86.1647 53.7779 84.28 56.3037 85.5523C58.8295 86.8245 58.7795 88.009 58.5139 88.9172C58.2481 89.8255 55.5028 93.5855 54.462 93.0877Z" fill="#FFB27D"/>
<path d="M59.1667 87.5255C58.9897 86.466 58.4515 86.3649 58.0763 86.4356C56.649 84.0752 54.3171 84.9964 54.3171 84.9964C53.0716 86.5594 51.2709 86.8261 51.2709 86.8261C51.2709 86.8261 51.7195 87.6606 53.5673 88.1772C54.1318 88.3349 54.7724 88.2394 55.3902 88.0314C54.1082 88.7462 52.7674 89.0201 52.7674 89.0201C55.2026 89.243 57.5195 87.0167 57.7597 86.7785C57.8721 87.1235 58.0691 87.8458 57.9512 88.3739C57.7909 89.0915 57.1539 90.3913 57.5428 90.5594C57.5428 90.5594 59.4321 89.1144 59.1667 87.5255Z" fill="#2B478B"/>
<path d="M23.8372 148.517H16.9946C16.9946 148.517 16.8306 147.474 17.188 146.683C17.5304 145.924 18.0668 145.579 17.9384 144.66C18.3732 145.108 19.0818 145.609 20.0711 145.476C20.1923 145.672 20.8535 146.724 21.2584 147.015C21.7056 147.336 23.6995 147.222 23.8372 148.517Z" fill="#233862"/>
<path d="M50.4513 104.052C49.5707 104.359 48.3354 104.528 47.0714 104.665C45.272 104.862 43.4142 104.995 42.4412 105.384C42.2511 105.46 41.6977 105.691 41.1432 106.093V106.094C41.1432 106.094 41.1294 106.102 41.105 106.122C40.9213 106.256 40.7375 106.411 40.5686 106.586C40.3105 106.851 40.0853 107.161 39.9409 107.517C39.584 108.399 40.0567 110.843 40.3594 112.179C40.4815 112.717 40.2277 113.272 39.738 113.526C39.054 113.88 38.3816 114.207 37.7209 114.505C37.6858 114.521 37.6519 114.536 37.6168 114.552C37.6232 114.416 37.6253 114.281 37.6253 114.15C37.6264 113.228 37.5095 112.461 37.5095 112.461C37.347 113.391 36.7341 114.396 36.1626 115.169C26.9798 118.854 20.5641 117.252 20.6693 115.417C21.0315 109.044 25.3292 103.623 25.3292 103.623C33.3446 94.3022 49.5581 91.8485 49.5581 91.8485C49.5581 91.8485 50.3346 91.755 51.2714 92.8809C52.6193 94.5029 52.6862 94.9256 52.6862 94.9256C52.6862 94.9256 53.042 103.148 50.4513 104.052Z" fill="#ABDDDA"/>
<path d="M47.0707 104.665C45.2715 104.861 43.4138 104.996 42.4407 105.384C42.043 99.4413 44.8473 94.9716 44.8473 94.9716C44.8473 94.9716 46.6767 102.416 47.0707 104.665Z" fill="#91CECF"/>
<path d="M48.9604 93.822C48.9604 93.822 44.451 94.2675 44.0895 97.1976C43.728 100.128 48.4128 112.062 49.0837 113.143C50.3051 115.11 57.4975 121.854 57.4975 121.854L58.8231 121.051C58.8231 121.051 53.7214 112.414 52.9316 111.606C51.6915 110.337 50.4873 94.8369 48.9604 93.822Z" fill="#FFB27D"/>
<path d="M51.2708 99.4196C51.2708 99.4196 51.734 91.8648 45.9515 93.6915C40.169 95.5183 46.849 108.513 46.849 108.513C46.849 108.513 50.2428 108.345 51.4464 105.384L51.2708 99.4196Z" fill="#ABDDDA"/>
<path d="M40.3593 112.179C40.4814 112.717 40.2276 113.272 39.7379 113.526C39.0539 113.88 38.3815 114.207 37.7208 114.505C37.6857 114.393 37.6539 114.275 37.6252 114.15C37.5211 113.684 37.4733 113.128 37.5094 112.461C37.6623 109.639 39.5839 107.503 40.5685 106.586C40.3104 106.851 40.0852 107.161 39.9408 107.517C39.5839 108.399 40.0566 110.843 40.3593 112.179Z" fill="#91CECF"/>
<path d="M49.558 91.8485C49.558 91.8485 50.2639 90.956 50.7411 90.9848C50.7411 90.9848 52.6707 93.6861 52.6862 94.9256C52.6862 94.9256 50.2795 91.7231 49.558 91.8485Z" fill="#91CECF"/>
<path d="M68.0698 117.988C68.0698 117.988 67.0438 118.007 66.8223 117.975C66.605 117.944 66.3144 117.849 66.0222 117.839C65.7349 117.828 65.4709 117.921 65.2011 117.977C65.1609 117.985 65.1199 117.988 65.0789 117.988H63.3772C63.3772 117.988 63.2065 117.907 63.0196 117.606C62.9391 117.476 62.9281 117.167 62.7443 117.064C61.714 116.489 64.4564 116.815 64.4564 116.815C64.4564 116.815 66.1781 116.784 66.3371 116.902C66.62 117.115 68.1338 117.907 68.0698 117.988Z" fill="#ED985F"/>
<path d="M63.3773 117.989C63.3773 117.989 64.422 118.29 64.7059 118.484L65.0057 118.673C65.0057 118.673 65.1791 118.48 64.906 118.265C64.7619 118.151 64.364 117.819 64.3511 117.439C64.3381 117.058 63.1586 117.39 63.3773 117.989Z" fill="#ED985F"/>
<path d="M58.8232 121.051C58.8232 121.051 59.5698 121.714 60.1376 121.854C60.7054 121.994 61.3506 123.62 61.4539 123.852C61.5572 124.085 60.9119 123.749 60.6538 123.353C60.3957 122.958 60.2194 122.803 60.1441 122.889C60.0688 122.975 60.1893 124.059 60.6194 124.661C61.0495 125.263 61.3076 125.797 60.9979 125.762C60.6882 125.728 58.8471 125.281 58.4685 124.162C58.0899 123.044 58.3676 123.004 57.4975 121.854C56.6274 120.704 58.8232 121.051 58.8232 121.051Z" fill="#FFB27D"/>
<path d="M137.172 67.1166C137.164 66.9173 137.01 64.7692 133.738 64.657C133.738 64.657 135.347 64.8489 135.625 65.5562C135.625 65.5562 134.529 64.6822 133.637 64.9633C132.745 65.2444 132.221 66.8075 132.216 67.3216C132.211 67.8357 132.706 69.493 133.273 69.6339C133.487 69.6873 133.734 69.673 133.958 69.6348C133.808 69.87 133.66 70.1295 133.519 70.4193C132.213 73.0994 133.56 75.7186 134.665 75.4292C135.374 75.2437 135.574 76.4532 135.574 76.4532L142.461 70.8778C142.461 70.8778 139.932 65.6436 137.172 67.1166Z" fill="#2C3A64"/>
<path d="M148.96 95.5745C148.896 95.722 148.605 96.4161 148.135 97.1221C147.755 97.6952 147.254 98.2751 146.661 98.574C146.206 98.3543 145.386 98.0311 145.038 97.8173C143.781 97.0489 141.987 94.8706 140.523 92.5352C140.299 92.1788 140.083 91.8195 139.878 91.4602C139.833 91.3938 139.8 91.3274 139.767 91.261C139.245 90.3315 138.825 89.4069 138.581 88.5613L141.242 82.8729C141.252 82.8827 142.069 83.3656 142.79 85.4378C143.862 88.5212 145.601 92.8993 146.808 94.2389C147.089 94.5504 147.914 95.023 148.912 95.5248V95.5258C148.933 95.5579 148.95 95.5745 148.96 95.5745Z" fill="#ABDDDA"/>
<path d="M148.135 97.1221C147.755 97.6952 147.254 98.2751 146.661 98.574C146.206 98.3543 145.386 98.0311 145.038 97.8173C143.781 97.0489 141.987 94.8706 140.523 92.5352C140.577 91.8009 144.42 95.5717 144.908 96.2551C145.277 96.7705 147.179 97.0264 148.135 97.1221Z" fill="#91CECF"/>
<path d="M154.562 141.957L154.025 146.924C153.919 147.906 153.028 148.624 152.046 148.517L147.079 147.981C146.097 147.875 145.379 146.983 145.485 146.001L146.021 141.034C146.119 140.131 146.879 139.453 147.764 139.431C147.842 139.429 147.921 139.432 148.002 139.441L152.967 139.977C153.951 140.083 154.667 140.974 154.562 141.957Z" fill="#2B478B"/>
<path d="M151.767 141.816C148.252 142.012 147.534 148.03 147.079 147.981C146.097 147.875 145.379 146.983 145.485 146.001L146.021 141.034C146.119 140.131 146.879 139.453 147.764 139.431C150.86 140.56 153.533 141.718 151.767 141.816Z" fill="#233862"/>
<path d="M167.268 81.158L160.574 118.896L156.798 140.186C156.58 141.413 155.447 142.263 154.207 142.129L148.109 141.471L146.732 141.322C145.002 141.135 143.716 139.633 143.798 137.894L144.778 117.19L146.587 78.9252L159.336 80.3019L167.268 81.158Z" fill="#F7E0CB"/>
<path opacity="0.5" d="M159.336 80.3018L152.837 117.435L148.88 140.039C148.781 140.612 148.501 141.108 148.109 141.471L146.732 141.322C145.002 141.135 143.716 139.633 143.798 137.894L144.778 117.19L146.587 78.9252L159.336 80.3018Z" fill="#EFCBAB"/>
<path d="M167.547 78.5804L167.269 81.158L159.336 80.3018L146.587 78.9251L146.865 76.3475L159.696 77.7329L167.547 78.5804Z" fill="#E58435"/>
<path d="M160.574 118.896L156.773 140.323C156.569 141.474 155.509 142.269 154.347 142.144L148.604 141.524L146.21 141.266C144.773 141.11 143.706 139.864 143.774 138.42L144.778 117.19L152.952 118.073L160.574 118.896Z" fill="#F1A34F"/>
<path d="M152.952 118.073L148.959 140.582C148.899 140.925 148.776 141.242 148.604 141.525L146.21 141.266C144.773 141.111 143.706 139.864 143.774 138.42L144.778 117.19L152.952 118.073Z" fill="#EB9342"/>
<path d="M159.696 77.7329L159.336 80.3018L146.587 78.9251L146.865 76.3475L159.696 77.7329Z" fill="#CE732E"/>
<path d="M139.569 146.072L138.107 146.616C138.107 146.616 131.753 137.804 130.97 130.051C130.831 128.666 131.117 125.732 131.009 125.105C130.958 124.812 130.896 124.46 130.826 124.057C130.619 122.873 130.335 121.254 130.01 119.41C129.262 115.166 128.294 109.742 127.542 105.754L127.936 105.627L132.2 104.251L133.082 101.452L136.257 100.616C136.257 100.616 136.967 102.004 137.601 108.559C137.718 109.419 137.824 110.368 137.904 111.396C138.152 114.534 138.17 118.428 137.602 122.879C137.457 124.018 136.852 128.497 136.923 129.883C137.243 136.222 139.569 146.072 139.569 146.072Z" fill="#2B478B"/>
<path d="M137.905 111.396L131.009 125.105C130.959 124.812 130.896 124.46 130.826 124.057C130.619 122.873 130.335 121.254 130.01 119.41C129.263 115.166 128.294 109.742 127.542 105.754L127.936 105.627L132.201 104.251L133.082 101.452L136.258 100.616C136.258 100.616 136.967 102.004 137.601 108.559C137.718 109.419 137.824 110.368 137.905 111.396Z" fill="#233862"/>
<path d="M134.871 102.375L134.711 101.006C132.037 101.717 124.891 99.0215 124.891 99.0215C124.891 99.0215 122.3 101.299 122.64 106.758C122.806 109.423 123.109 120.746 123.426 124.096C123.541 125.311 122.753 128.436 122.436 129.279C119.327 137.564 122.915 147.767 122.915 147.767L123.846 147.392C123.846 147.392 129.736 126.035 130.344 123.773C131.492 119.495 132.417 113.931 133.032 109.636C133.117 109.64 134.871 102.375 134.871 102.375Z" fill="#2B478B"/>
<path d="M136.9 86.4924C132.302 86.7445 133.312 79.8903 133.593 79.925C134.156 79.6312 135.166 78.204 135.75 75.8166L135.948 75.9086L139.266 77.4684C139.266 77.4684 138.914 78.548 138.653 79.5811C138.45 80.3896 138.305 81.1707 138.426 81.3892C138.688 81.4955 138.844 81.5624 138.844 81.5624C138.844 81.5624 138.844 81.5636 138.846 81.5659C138.879 81.6508 138.127 86.4255 136.9 86.4924Z" fill="#FFB27D"/>
<path d="M139.266 77.469C139.266 77.469 138.913 78.5475 138.654 79.5817C136.714 79.0406 136.125 77.002 135.948 75.9092L139.266 77.469Z" fill="#ED985F"/>
<path d="M139.674 78.611C139.674 78.611 135.035 77.5373 135.748 74.6582C136.461 71.7791 136.343 69.7015 139.335 70.2654C142.328 70.8292 142.629 72.0699 142.624 73.0887C142.62 74.1077 140.9 78.8162 139.674 78.611Z" fill="#FFB27D"/>
<path d="M142.885 71.4542C142.387 70.4107 141.8 70.4664 141.432 70.6514C139.252 68.6343 137.114 70.2822 137.114 70.2822C136.291 72.2705 134.507 73.0829 134.507 73.0829C134.507 73.0829 135.22 73.8127 137.286 73.7967C137.917 73.7918 138.551 73.502 139.129 73.1028C138.015 74.2243 136.709 74.9071 136.709 74.9071C139.295 74.4122 141.03 71.4184 141.207 71.1004C141.426 71.4239 141.845 72.1126 141.881 72.6941C141.929 73.4844 141.657 75.019 142.109 75.0772C142.109 75.0772 143.634 73.0192 142.885 71.4542Z" fill="#2C3A64"/>
<path d="M128.328 148.528H120.96C120.96 148.528 120.783 147.405 121.168 146.553C121.537 145.735 122.115 145.364 121.976 144.375C122.445 144.857 123.208 145.397 124.273 145.253C124.403 145.465 125.115 146.597 125.551 146.91C126.033 147.256 128.18 147.133 128.328 148.528Z" fill="#233862"/>
<path d="M144.147 148.528H136.78C136.78 148.528 136.504 147.352 136.988 146.553C137.416 145.845 137.252 145.442 136.935 144.857C137.269 144.993 137.7 145.118 138.176 145.091C138.543 145.069 138.931 144.903 139.272 144.705C139.589 145.067 140.946 146.606 141.371 146.91C141.852 147.256 143.999 147.133 144.147 148.528Z" fill="#233862"/>
<path d="M141.242 82.8728L140.034 99.0973L139.295 109.032C138.159 109.385 137.077 109.662 136.051 109.874C135.983 109.041 135.714 108.045 135.714 108.045C135.726 108.567 135.115 109.567 134.752 110.111C125.318 111.622 120.895 107.507 120.895 107.507C121.262 103.864 122.851 96.4953 124.754 90.3177C125.151 89.0327 125.56 87.7996 125.975 86.6621C126.918 84.0757 127.517 82.7254 128.026 81.6787C128.994 79.6888 133.319 79.8138 133.319 79.8138C134.152 82.8161 136.441 84.6879 136.441 84.6879C137.662 83.9712 138.571 81.4512 138.571 81.4512L141.242 82.8728Z" fill="#ABDDDA"/>
<path d="M148.814 99.8661C148.204 99.8633 147.243 99.8215 146.686 99.6083C146.686 99.6083 148.463 99.5829 148.085 99.0215C148.017 98.9194 147.133 98.9967 146.147 98.9967C145.743 98.9967 144.744 99.5507 144.795 99.5765C144.081 99.4821 143.431 99.3437 143.221 99.2983C143.166 99.2873 143.144 99.2761 143.144 99.2761L142.513 101.114C142.513 101.114 142.646 101.147 142.878 101.191C143.465 101.335 144.671 101.645 145.812 102.088C147.406 102.719 148.579 101.934 149.111 101.379C149.448 101.028 149.714 100.561 149.695 100.222C149.675 99.8509 149.186 99.8679 148.814 99.8661Z" fill="#FFB27D"/>
<path d="M134.273 79.2591C134.273 79.2591 133.488 79.3118 133.319 79.8138C133.319 79.8138 134.344 83.9368 136.441 84.6874L134.273 79.2591Z" fill="#6BB7BF"/>
<path d="M136.441 84.6874C136.441 84.6874 138.398 81.4315 138.391 80.9428C138.391 80.9428 139.199 81.2573 139.149 81.7587C139.149 81.7587 137.461 84.4621 136.441 84.6874Z" fill="#6BB7BF"/>
<path d="M131.068 83.2204C131.125 83.4156 138.188 94.6929 138.343 96.9385C138.497 99.1842 135.372 97.9149 135.323 97.622C135.275 97.329 131.068 83.2204 131.068 83.2204Z" fill="#91CECF"/>
<path d="M140.034 99.0973L139.295 109.032C129.191 106.121 128.635 84.7993 128.635 84.7993L134.88 96.0735L139.98 99.0212C139.98 99.0212 139.999 99.0475 140.034 99.0973Z" fill="#91CECF"/>
<path d="M144.528 100.007L144.14 101.424C144.14 101.424 143.653 101.335 142.878 101.192C142.645 101.147 142.512 101.113 142.512 101.113C141.892 100.992 141.151 100.826 140.343 100.649H140.331C138.948 100.317 137.398 99.9184 136.092 99.4752C135.975 99.4342 135.859 99.3932 135.747 99.3522C134.975 99.0671 136.468 95.1469 137.143 95.6342C137.322 95.764 137.514 95.8978 137.716 96.0355C138.835 96.796 140.261 97.6436 141.527 98.3573C142.147 98.7118 142.734 99.033 143.221 99.2985C144.007 99.73 144.528 100.007 144.528 100.007Z" fill="#FFB27D"/>
<path d="M137.716 96.0354C137.716 96.0354 137.797 98.7123 135.291 100.014C132.394 98.9687 130.845 94.649 129.649 91.6817C129.483 91.2726 129.328 90.8626 129.173 90.4642C128.62 88.981 128.176 87.5194 127.911 86.257C127.745 85.5042 127.634 84.8178 127.612 84.2535C127.601 84.0543 127.589 83.8658 127.601 83.6891C127.623 80.4787 129.893 80.1468 130.192 80.512C130.567 80.966 130.966 81.7071 131.376 82.6044C132.007 84.0318 132.671 85.8811 133.291 87.7187C133.634 88.7263 133.966 89.7339 134.298 90.6634C134.487 91.2278 134.675 91.7589 134.852 92.2461C135.195 93.1766 135.505 93.9294 135.781 94.4049C135.959 94.7154 136.468 95.1469 137.143 95.6342C137.322 95.7639 137.514 95.8977 137.716 96.0354Z" fill="#ABDDDA"/>
<path d="M148.975 95.5569C148.972 95.5686 148.967 95.5745 148.961 95.5745C148.964 95.5657 148.967 95.5589 148.969 95.554C148.978 95.5364 148.98 95.5364 148.975 95.5569Z" fill="#ABDDDA"/>
<path d="M79.7749 145.685C79.7749 146.391 79.4855 147.034 79.0192 147.5C78.5528 147.967 77.9104 148.256 77.2035 148.256H65.0609C63.647 148.256 62.4903 147.098 62.4903 145.685C62.4903 144.978 62.7797 144.335 63.2452 143.869C63.7116 143.403 64.354 143.114 65.0609 143.114H77.2034C78.6173 143.114 79.7749 144.271 79.7749 145.685Z" fill="#2B478B"/>
<path d="M73.511 145.685C73.511 146.391 73.2216 147.034 72.7561 147.5C72.2897 147.967 71.6473 148.256 70.9404 148.256H65.0609C63.647 148.256 62.4903 147.098 62.4903 145.685C62.4903 144.978 62.7797 144.335 63.2452 143.869C63.7116 143.403 64.354 143.114 65.0609 143.114H70.9404C72.3543 143.114 73.511 144.271 73.511 145.685Z" fill="#699FF0"/>
<path opacity="0.4" d="M77.4092 144.495H65.8269C65.6265 144.495 65.4625 144.331 65.4625 144.131V144.048C65.4625 143.848 65.6265 143.684 65.8269 143.684H77.4091C77.6095 143.684 77.7735 143.848 77.7735 144.048V144.131C77.7735 144.331 77.6096 144.495 77.4092 144.495Z" fill="#E9F3FE"/>
<path d="M69.4133 138.402C69.7491 139.072 69.78 139.818 69.5594 140.482C69.3389 141.145 68.8674 141.725 68.1974 142.06L56.6884 147.828C55.3483 148.499 53.7021 147.952 53.0306 146.611C52.6948 145.941 52.664 145.195 52.8837 144.532C53.1046 143.869 53.5761 143.29 54.2461 142.954L65.755 137.187C67.0952 136.515 68.7418 137.062 69.4133 138.402Z" fill="#EF7E29"/>
<path d="M63.4763 141.377C63.8121 142.047 63.843 142.793 63.6233 143.456C63.4028 144.12 62.9313 144.699 62.2613 145.035L56.6885 147.828C55.3484 148.499 53.7022 147.952 53.0307 146.611C52.6949 145.941 52.6641 145.195 52.8838 144.532C53.1047 143.869 53.5762 143.29 54.2462 142.954L59.8189 140.161C61.1589 139.49 62.8047 140.037 63.4763 141.377Z" fill="#F99746"/>
<path opacity="0.5" d="M66.606 138.398L55.6282 143.899C55.4382 143.994 55.2049 143.917 55.1097 143.727L55.0707 143.649C54.9755 143.459 55.053 143.226 55.243 143.131L66.2209 137.629C66.4108 137.534 66.6441 137.612 66.7393 137.802L66.7784 137.879C66.8735 138.069 66.7959 138.303 66.606 138.398Z" fill="#FFE2CC"/>
<path d="M203.074 85.8577C203.295 86.1115 203.324 86.3952 203.214 86.6981C203.214 86.6994 203.213 86.7011 203.212 86.7023C203.009 87.2626 202.339 87.8882 201.561 88.513C201.462 88.5933 201.373 88.6662 201.296 88.7338C201.276 88.7516 201.256 88.7692 201.237 88.7871C201.221 88.8009 201.206 88.8152 201.191 88.8284C200.465 89.4972 200.739 89.6505 199.435 91.0076C197.949 92.554 196.925 92.5818 196.634 92.441C196.388 92.3209 196.888 91.5007 197.443 90.5789C197.47 90.5345 197.496 90.4894 197.524 90.4445C197.598 90.3219 197.671 90.1975 197.744 90.0743C198.394 88.9648 198.227 88.4443 198.073 86.7932C197.948 85.4515 195.986 79.2975 195.986 79.2975L198.834 78.8068C198.834 78.8068 199.692 83.7072 200.637 84.4619C201.142 84.8642 201.708 84.8692 202.193 85.1675C202.228 85.1882 202.261 85.2095 202.294 85.2313C202.571 85.4144 202.852 85.6032 203.074 85.8577Z" fill="#FFB27D"/>
<path d="M203.074 85.8577C203.295 86.1115 203.323 86.3952 203.214 86.6981C203.214 86.6994 203.213 86.7011 203.212 86.7023C202.963 87.2621 202.31 87.8845 201.558 88.5073C201.46 88.5889 201.373 88.6638 201.296 88.7339C201.276 88.7517 201.256 88.7693 201.237 88.7872C201.221 88.801 201.206 88.8153 201.191 88.8285C200.465 89.4973 200.738 89.6506 199.435 91.0077C197.949 92.5541 196.925 92.5819 196.634 92.4411C196.388 92.321 196.888 91.5008 197.443 90.579C197.732 90.4729 199.076 89.927 200.092 88.6269C200.987 87.4849 201.584 86.0175 202.193 85.1676C202.228 85.1883 202.261 85.2096 202.294 85.2314C202.57 85.4144 202.852 85.6032 203.074 85.8577Z" fill="#233862"/>
<path d="M180.108 84.0788C179.932 84.958 178.679 84.8113 177.278 84.4692C175.878 84.127 176.211 84.5338 174.218 84.3131C172.226 84.0924 171.622 83.3495 171.561 83.0532C171.507 82.7903 172.491 82.6975 173.548 82.576C173.68 82.5611 173.814 82.5447 173.947 82.5281C175.14 82.3785 176.013 81.6092 177.096 80.9772C178.122 80.3787 179.653 77.94 179.653 77.94L182.385 78.1565C182.385 78.1565 180.951 80.3346 180.397 81.2816C180.07 81.8386 180.088 82.5752 180.128 83.1439C180.15 83.4531 180.17 83.7691 180.108 84.0788Z" fill="#FFB27D"/>
<path d="M177.278 84.4692C175.878 84.127 176.211 84.5338 174.218 84.3131C172.226 84.0924 171.622 83.3495 171.561 83.0532C171.507 82.7903 172.491 82.6975 173.548 82.576L173.557 82.5963C173.557 82.5963 174.752 83.4436 176.411 83.4833C177.763 83.5161 179.195 83.1288 180.129 83.1439C180.15 83.453 180.17 83.769 180.108 84.0787C179.932 84.958 178.679 84.8113 177.278 84.4692Z" fill="#233862"/>
<path d="M190.58 66.6049L193.135 73.4791L196.47 82.4548C196.47 82.4548 197.375 82.5422 198.242 82.2929C199.04 82.0622 199.956 81.4588 199.956 81.4588C199.956 81.4588 199.029 71.8214 197.302 66.2892C196.859 64.8691 196.363 63.7205 195.816 63.074C193.137 59.9089 190.58 66.6049 190.58 66.6049Z" fill="#233862"/>
<path d="M193.177 55.6878C194.851 55.148 199.625 55.8411 204.42 56.7797L205.424 55.1237L215.781 54.3149C215.781 54.3149 219.198 61.8941 217.327 66.7234C217.052 67.4332 216.506 67.8884 215.574 67.9034C215.574 67.9038 215.424 67.903 215.423 67.9034C215.423 67.9034 209.259 67.8998 207.257 67.8998C202.106 67.8998 196.356 64.3592 195.612 64.2104C194.395 63.9669 193.908 66.4019 192.69 68.9587C191.473 71.5155 181.246 80.2815 181.246 80.2815C181.246 80.2815 179.674 80.2971 179.025 80.0536C178.327 79.7918 178.071 79.4516 178.071 79.4516C178.071 79.4516 189.403 56.9053 193.177 55.6878Z" fill="#2B478B"/>
<path d="M202.538 40.7242C205.805 43.3805 213.674 47.984 213.718 47.9642C213.718 47.9642 216.238 49.4746 217.959 48.7335C220.825 47.4983 223.027 43.1741 219.061 38.3899C217.084 36.0039 215.444 35.2178 215.829 32.0457C216.246 28.6087 214.694 24.2876 210.738 24.1062C210.408 24.091 208.404 23.8235 206.975 24.2723C203.331 25.4159 197.238 38.9642 202.538 40.7242Z" fill="#233862"/>
<path d="M216.488 55.4388C216.275 56.0275 210.675 56.5522 207.489 56.3407C206.477 56.2751 205.707 56.1325 205.433 55.8964C204.297 54.9092 204.41 57.0803 204.254 46.6924C204.178 41.6255 208.553 37.1129 208.553 37.1129C208.553 37.1129 208.903 39.2773 213.241 36.7013C213.396 36.6111 215.104 39.1413 216.749 42.2569C218.561 45.6986 216.706 54.8337 216.488 55.4388Z" fill="#ABDDDA"/>
<path d="M193.135 73.4791L196.47 82.4548C196.47 82.4548 197.375 82.5422 198.242 82.2929C199.04 82.0622 199.956 81.4588 199.956 81.4588C199.956 81.4588 199.029 71.8214 197.302 66.2892L193.135 73.4791Z" fill="#2B478B"/>
<path d="M208.553 37.1121C208.553 37.1121 204.592 38.084 203.565 39.7911C202.313 41.8703 196.074 51.2449 196.074 51.2449C196.074 51.2449 202.225 53.4207 203.273 52.3723C204.322 51.3239 206.921 42.6452 206.921 42.6452L208.553 37.1121Z" fill="#ABDDDA"/>
<path d="M213.251 36.7076C213.268 36.7098 211.653 38.1973 210.47 38.6271C210.006 38.7962 209.237 38.9813 209.237 38.9813C209.237 38.9813 208.619 38.3562 208.61 38.3477C208.06 37.8351 208.612 37.6871 208.529 36.7176C208.525 36.6717 208.522 36.6247 208.516 36.5777C208.405 35.4929 208.092 34.3052 208.072 34.2279C208.07 34.2256 208.07 34.2245 208.07 34.2245L211.904 33.1285L211.78 33.3402C212.016 35.3296 212.731 36.6493 213.251 36.7076Z" fill="#FFB27D"/>
<path d="M211.904 33.1287C211.532 34.2426 210.518 35.7374 208.45 36.0598C208.251 34.8644 208.092 34.3053 208.072 34.2281C208.07 34.2258 208.07 34.2247 208.07 34.2247L211.904 33.1287Z" fill="#ED975D"/>
<path d="M207.433 35.379C207.433 35.379 212.599 35.0354 212.336 31.8211C212.072 28.6068 212.562 26.3977 209.252 26.4812C205.942 26.5647 205.402 27.8437 205.229 28.9379C205.056 30.0322 206.082 35.3855 207.433 35.379Z" fill="#FFB27D"/>
<path d="M206.504 26.4236C206.504 26.4236 207.788 30.1904 210.836 30.6283C213.059 30.9477 213.942 30.3466 213.942 30.3466C213.942 30.3466 212.701 29.1672 212.029 27.3532C211.83 26.8185 211.362 26.4292 210.798 26.3423C209.215 26.0979 207.172 25.0502 206.504 26.4236Z" fill="#233862"/>
<path d="M207.599 27.0907C207.599 27.0907 206.677 27.4633 206.033 28.8406C205.682 29.5932 205.427 31.3855 205.644 32.1242C205.644 32.1242 204.159 28.6873 205.234 27.1382C206.375 25.4955 207.599 27.0907 207.599 27.0907Z" fill="#233862"/>
<path d="M208.529 36.7177C208.529 36.7177 208.845 38.6252 209.237 38.9813C209.237 38.9813 208.246 38.6151 207.776 37.3344C207.776 37.3344 208.122 36.7613 208.529 36.7177Z" fill="#6BB7BF"/>
<path d="M204.844 43.2052C204.844 43.2052 201.958 46.6664 202.314 47.92C202.669 49.1736 204.667 49.1736 204.667 49.1736C204.667 49.1736 204.294 46.5029 204.667 45.1131C205.04 43.7232 205.274 43.1232 204.844 43.2052Z" fill="#91CECF"/>
<path d="M213.251 52.2258C213.251 52.2258 215.477 50.6452 215.423 49.1736C215.368 47.702 215.425 45.0016 215.814 45.3798C216.204 45.7581 217.437 48.7916 217.318 49.6504C217.199 50.5093 216.24 53.0615 215.732 53.1705C215.223 53.2795 213.251 52.2258 213.251 52.2258Z" fill="#91CECF"/>
<path d="M205.075 57.8895C205.075 57.8895 208.203 67.6684 216.138 68.8311C216.138 68.8311 218.955 66.0696 218.706 59.8199C218.457 53.5702 205.075 57.8895 205.075 57.8895Z" fill="#ABDDDA"/>
<path d="M232.039 60.7297L230.522 64.908C230.13 65.9897 228.935 66.5484 227.853 66.1558L187.878 51.6486C186.036 50.98 184.261 50.1388 182.578 49.1362L177.173 45.9169L170.17 41.7455C168.957 41.0224 167.678 40.4162 166.35 39.9345L157.401 36.6866C157.069 36.5662 156.898 36.1999 157.018 35.868C157.078 35.702 157.2 35.5763 157.348 35.5072C157.496 35.4381 157.671 35.4251 157.837 35.4853L165.147 38.1385C167.565 39.0157 170.06 39.6626 172.599 40.0701L178.927 41.0853L185.495 42.1384C187.192 42.4106 188.861 42.8435 190.477 43.43L230.791 58.0604C231.873 58.4528 232.431 59.6481 232.039 60.7297Z" fill="#AEC3FF"/>
<path d="M232.039 60.7297L230.523 64.908C230.13 65.9897 228.935 66.5484 227.853 66.1558L187.879 51.6486C186.036 50.98 184.261 50.1388 182.578 49.1362L177.174 45.9169C177.143 45.0183 177.272 44.1515 177.571 43.3268C177.87 42.5027 178.328 41.7551 178.927 41.0851L185.495 42.1382C187.192 42.4104 188.861 42.8433 190.477 43.4298L230.791 58.0602C231.873 58.4528 232.431 59.6481 232.039 60.7297Z" fill="#CDE0FB"/>
<path d="M232.039 60.7297L230.522 64.908C230.13 65.9897 228.935 66.5484 227.853 66.1558L223.525 64.5852L226.463 56.4896L230.791 58.0603C231.873 58.4528 232.431 59.6481 232.039 60.7297Z" fill="#F99746"/>
<path d="M206.482 52.1329L195.496 48.1464L194.443 51.0498L205.429 55.0363L206.482 52.1329Z" fill="#8FADEF"/>
<path d="M162.163 37.0554L161.727 38.2568L157.401 36.6866C157.069 36.5662 156.898 36.1999 157.018 35.868C157.078 35.702 157.2 35.5763 157.348 35.5072C157.496 35.4381 157.671 35.4251 157.837 35.4853L162.163 37.0554Z" fill="#2B478B"/>
<path d="M186.454 51.2956C186.454 51.2956 186.336 49.5652 186.99 49.6333C187.792 49.717 188.645 51.6204 188.254 51.9883C187.862 52.3563 186.462 51.7223 186.454 51.2956Z" fill="#FFB27D"/>
<path d="M213.242 36.7019C213.242 36.7019 217.341 36.9702 218.366 38.5689C219.391 40.1677 222.682 49.2747 222.149 52.0623C221.616 54.8499 214.161 59.538 214.161 59.538L213.368 57.8318C213.368 57.8318 217.729 50.6457 217.318 49.6505C215.798 45.9741 213.242 36.7019 213.242 36.7019Z" fill="#ABDDDA"/>
<path d="M214.344 58.4163L213.368 57.8317C213.368 57.8317 212.763 57.5899 212.407 57.641C212.05 57.692 211.204 57.5423 211.177 57.6807C211.15 57.8191 212.05 58.4108 212.05 58.4108L212.083 58.4041C211.577 59.1794 209.654 59.3547 209.515 59.6467C209.346 60.0007 210.173 60.3331 210.622 60.5255C211.07 60.7179 212.218 60.8938 212.88 60.3904C213.364 60.0225 214.161 59.538 214.161 59.538L214.344 58.4163Z" fill="#FFB27D"/>
<path d="M212.445 35.8236C212.445 35.8236 210.176 38.678 209.236 38.9814C209.236 38.9814 211.903 38.9814 213.786 36.7552C213.786 36.7552 213.157 35.8328 212.445 35.8236Z" fill="#6BB7BF"/>
<path d="M191.964 116.099V143.65C191.964 146.39 189.745 148.611 187.005 148.611H173.751C171.011 148.611 168.79 146.39 168.79 143.65V116.099C168.79 114.728 169.346 113.488 170.242 112.589C171.14 111.692 172.38 111.137 173.751 111.137C174.322 111.137 174.807 110.76 174.972 110.244C175.01 110.122 175.031 109.993 175.031 109.858V107.26C175.031 107.139 175.051 107.023 175.093 106.917C175.232 106.542 175.591 106.275 176.014 106.275H184.869C185.037 106.275 185.195 106.324 185.327 106.407C185.567 106.56 185.726 106.828 185.726 107.132V109.858C185.726 110.564 186.297 111.137 187.005 111.137C189.745 111.137 191.964 113.358 191.964 116.099Z" fill="#5A98E2"/>
<path d="M191.964 116.099V143.65C191.964 146.39 189.745 148.611 187.005 148.611H178.167C175.427 148.611 173.206 146.39 173.206 143.65V116.099C173.206 114.728 173.763 113.488 174.659 112.589C175.556 111.692 176.796 111.137 178.167 111.137C178.739 111.137 179.223 110.76 179.388 110.244C179.426 110.122 179.447 109.993 179.447 109.858V107.26C179.447 107.139 179.469 107.023 179.509 106.917C179.648 106.542 180.008 106.275 180.43 106.275H184.869C185.037 106.275 185.195 106.324 185.327 106.407C185.567 106.56 185.726 106.828 185.726 107.132V109.858C185.726 110.564 186.297 111.137 187.005 111.137C189.745 111.137 191.964 113.358 191.964 116.099Z" fill="#7BABEF"/>
<path d="M186.278 109.669H174.093V107.344C174.093 106.346 174.903 105.536 175.901 105.536H184.47C185.469 105.536 186.278 106.346 186.278 107.344L186.278 109.669Z" fill="#F99746"/>
<path d="M191.965 120.423H168.79V130.558H191.965V120.423Z" fill="#2B478B"/>
<path d="M226.425 141.578C226.425 143.336 225.078 144.829 223.296 144.981L185.419 148.198C184.004 148.318 182.719 147.56 182.102 146.377H182.101C181.97 146.125 181.868 145.855 181.802 145.571C181.765 145.412 181.739 145.25 181.725 145.084C181.689 144.665 181.732 144.259 181.839 143.876C181.85 143.831 181.863 143.787 181.878 143.745C181.947 143.526 182.039 143.318 182.15 143.121C182.687 142.168 183.669 141.489 184.841 141.389L222.718 138.172C224.455 138.024 225.999 139.203 226.349 140.865C226.379 141.002 226.4 141.143 226.412 141.286C226.42 141.384 226.425 141.482 226.425 141.578Z" fill="#EAC3A2"/>
<path d="M184.012 145.003C184.012 145.452 183.782 145.858 183.428 146.097C183.248 146.219 183.034 146.298 182.803 146.317L182.102 146.377H182.101L179.31 146.613C178.759 146.66 178.258 146.362 178.021 145.898C177.945 145.751 177.896 145.586 177.882 145.41C177.82 144.684 178.36 144.044 179.087 143.982L181.814 143.75L181.878 143.745L182.579 143.686C182.619 143.682 182.657 143.681 182.696 143.681C183.374 143.683 183.949 144.203 184.006 144.89C184.01 144.928 184.012 144.966 184.012 145.003Z" fill="#EAC3A2"/>
<path d="M226.349 140.865C225.978 142.2 224.809 143.226 223.348 143.351L185.47 146.57C184.729 146.633 184.022 146.454 183.428 146.097C183.049 145.872 182.715 145.572 182.449 145.218C182.155 144.829 181.943 144.375 181.838 143.876C181.829 143.835 181.82 143.793 181.814 143.75L181.878 143.745C181.947 143.526 182.039 143.318 182.15 143.121C182.687 142.168 183.669 141.489 184.841 141.389L222.718 138.172C224.455 138.024 225.999 139.203 226.349 140.865Z" fill="#F9DDBF"/>
<path d="M182.84 144.282C182.84 144.644 182.692 144.977 182.449 145.218C182.275 145.39 182.053 145.516 181.802 145.571C181.746 145.582 181.689 145.591 181.631 145.596L178.138 145.892C178.098 145.896 178.06 145.898 178.021 145.898C177.945 145.751 177.896 145.586 177.882 145.41C177.82 144.684 178.36 144.044 179.087 143.982L181.814 143.75L181.878 143.745C181.947 143.526 182.039 143.318 182.15 143.121C182.382 143.247 182.574 143.441 182.696 143.681C182.772 143.828 182.821 143.992 182.835 144.169C182.839 144.207 182.84 144.245 182.84 144.282Z" fill="#F9DDBF"/>
<path d="M239.007 140.23C239.04 142.295 237.457 144.079 235.37 144.256L222.803 145.325L222.671 137.358L222.714 137.354L234.697 136.336C236.526 136.18 238.182 137.305 238.774 138.961C238.888 139.276 238.963 139.611 238.993 139.96C239 140.05 239.004 140.14 239.007 140.23Z" fill="#233862"/>
<path d="M238.774 138.961C238.267 140.382 236.965 141.456 235.37 141.592L222.803 142.661L222.714 137.354L234.697 136.336C236.526 136.18 238.182 137.305 238.774 138.961Z" fill="#2B478B"/>
<path d="M221.066 146.337L220.247 136.698C220.155 135.62 220.955 134.672 222.033 134.58L222.291 134.558C223.369 134.467 224.318 135.266 224.409 136.344L225.228 145.983C225.32 147.061 224.52 148.009 223.442 148.101L223.184 148.123C222.106 148.215 221.158 147.415 221.066 146.337Z" fill="#F99746"/>
<path d="M298.104 149.348H6.65186C6.42616 149.348 6.24146 149.164 6.24146 148.938V148.568C6.24146 148.342 6.42616 148.158 6.65186 148.158H298.104C298.33 148.158 298.514 148.342 298.514 148.568V148.938C298.514 149.164 298.33 149.348 298.104 149.348Z" fill="#2E3552"/>
</svg>
